<svg width="50" height="50" viewBox="0 0 50 50" fill="none" xmlns="http://www.w3.org/2000/svg">
<path fill-rule="evenodd" clip-rule="evenodd" d="M0 0V50H50V0H0ZM10.9625 27.125V25.0875L11 25.1V23.05L19.75 23.0125C24.5625 23.0125 28.525 23.025 28.525 23.0625C28.575 23.0875 28.575 24 28.575 25.125V27.125H22.075V45.6251H17.4625V27.125H10.9625ZM43.3 24.7875C42.425 23.875 41.45 23.3 40.175 23L40.2 22.975C39.3375 22.75 37.275 22.675 36.4 22.85C33.7 23.35 31.8125 25.1 31.275 27.6C31.1 28.3125 31.1625 30.0876 31.35 30.8126C31.6 31.6501 32.1375 32.6626 32.725 33.3126C33.75 34.3876 34.85 35.0876 37.4375 36.1876C39.6875 37.1876 40.4875 37.6376 40.8875 38.1876C41.175 38.6251 41.2625 38.8876 41.2625 39.4626C41.2625 40.0876 41.0625 40.5376 40.6 40.9626C39.525 41.9376 37.35 42.0501 35.725 41.2126C35.1875 40.9126 34.2625 40.0376 33.85 39.3876L33.525 38.9501L32.1125 39.7751L30.2375 40.8626L29.7625 41.1626C29.7125 41.2501 30.6 42.5876 31.0625 43.0876C32.2375 44.3751 34.15 45.3751 36.15 45.7501C37.0875 45.9126 39.0875 45.9376 39.9625 45.7876C42.75 45.3251 44.7 43.9126 45.5 41.8251C46.2125 39.9126 45.975 37.3626 44.9125 35.7376C43.975 34.2876 42.425 33.2751 38.85 31.7376C36.9125 30.8876 36.2875 30.475 35.95 29.7875C35.8 29.4625 35.725 29.2375 35.725 28.8375C35.725 27.525 36.725 26.7375 38.225 26.8375C39.2625 26.9125 39.925 27.3125 40.575 28.2375C40.775 28.5625 40.975 28.775 41.025 28.7375C42.3375 27.925 44.5 26.4625 44.5 26.3875C44.45 26.1625 43.7625 25.2875 43.3 24.7875Z" fill="white"/>
</svg>
