<svg width="50" height="55" viewBox="0 0 50 55" fill="none" xmlns="http://www.w3.org/2000/svg">
<path fill-rule="evenodd" clip-rule="evenodd" d="M42.4739 43.0478C44.8697 44.3961 47.9399 43.5955 49.3171 41.25C50.7087 38.9045 49.891 35.9129 47.4808 34.5506C47.0575 34.3124 46.6132 34.1412 46.1609 34.0338V20.9696C46.6181 20.8624 47.0674 20.6902 47.4951 20.4494C49.891 19.0871 50.7087 16.0955 49.3315 13.75C47.9399 11.4045 44.8841 10.6039 42.4882 11.9522C42.0572 12.1973 41.6773 12.4952 41.352 12.8325L29.8 6.30286C29.9346 5.85905 30.0069 5.38876 30.0069 4.90169C30.0069 2.19101 27.7689 0 25 0C22.2311 0 19.9931 2.19101 19.9931 4.90169C19.9931 5.38606 20.0646 5.85383 20.1978 6.29548L8.64261 12.8269C8.31853 12.4919 7.94041 12.196 7.51177 11.9522C5.11593 10.6039 2.0458 11.4045 0.668551 13.75C-0.708701 16.0955 0.109042 19.1011 2.50489 20.4494C2.93263 20.6902 3.38186 20.8624 3.83911 20.9696V34.0336C3.38709 34.1409 2.94284 34.3122 2.51923 34.5506C0.123388 35.9129 -0.694355 38.9045 0.682897 41.25C2.06015 43.5955 5.11593 44.3961 7.52612 43.0478C7.95027 42.8066 8.32497 42.5143 8.64678 42.1836L20.1957 48.7115C20.0638 49.1511 19.9931 49.6165 19.9931 50.0983C19.9931 52.809 22.2311 55 25 55C27.7689 55 30.0069 52.7949 30.0069 50.0983C30.0069 49.5584 29.9181 49.0391 29.754 48.5536L41.2355 42.0637C41.5825 42.4452 41.9969 42.7793 42.4739 43.0478ZM40.1146 39.972C40.1417 40.0801 40.1726 40.1873 40.2071 40.2934L28.7028 46.7961C27.7876 45.8129 26.4685 45.1966 25 45.1966C23.582 45.1966 22.3032 45.7713 21.393 46.6961L9.8322 40.1615C9.85079 40.0987 9.8681 40.0355 9.88412 39.972H40.1146ZM41.5189 35.2476C41.1805 35.5635 40.8823 35.9315 40.6376 36.3483C40.3942 36.7627 40.2194 37.1977 40.1097 37.6405H9.89056C9.78088 37.198 9.60598 36.763 9.36245 36.3483C9.11677 35.9342 8.81922 35.5683 8.48259 35.2538L23.6054 9.61135C24.048 9.73639 24.5159 9.80337 25 9.80337C25.4857 9.80337 25.9551 9.73595 26.399 9.61012L41.5189 35.2476ZM43.7794 34.0386C43.7145 34.0542 43.6498 34.0711 43.5856 34.0892L28.462 8.44541C28.5076 8.40267 28.5524 8.35909 28.5964 8.3147L40.1759 14.8598C39.818 16.0906 39.9493 17.4552 40.6519 18.6517C41.3568 19.8521 42.505 20.6478 43.7794 20.9579V34.0386ZM21.398 8.30907C21.4448 8.35647 21.4926 8.40296 21.5413 8.44848L6.41799 34.0917C6.35256 34.0731 6.28675 34.0558 6.22061 34.0398V20.9579C7.49497 20.6478 8.64325 19.8521 9.34811 18.6517C10.0521 17.4527 10.1826 16.085 9.82191 14.8523L21.398 8.30907Z" fill="white"/>
</svg>
