<svg version="1.2" xmlns="http://www.w3.org/2000/svg" viewBox="0 0 3000 2500" width="3000" height="2500">
	<title>vecteezy_store-a-lot-of-programming-data-on-cloud-server_-ai</title>
	<defs>
		<linearGradient id="g1" x2="1" gradientUnits="userSpaceOnUse" gradientTransform="matrix(1590.328,0,0,625.876,823.961,1549.863)">
			<stop offset="0" stop-color="#3d494c"/>
			<stop offset="1" stop-color="#8f9697"/>
		</linearGradient>
		<linearGradient id="g2" x2="1" gradientUnits="userSpaceOnUse" gradientTransform="matrix(0,78.627,-1175.849,0,1622.681,1467.389)">
			<stop offset=".005" stop-color="#adb1b2"/>
			<stop offset="1" stop-color="#f6f7f7"/>
		</linearGradient>
		<linearGradient id="g3" x2="1" gradientUnits="userSpaceOnUse" gradientTransform="matrix(0,-742.015,557.051,0,2515.123,2134.152)">
			<stop offset=".005" stop-color="#adb1b2"/>
			<stop offset="1" stop-color="#eef0ee"/>
		</linearGradient>
		<linearGradient id="g4" x2="1" gradientUnits="userSpaceOnUse" gradientTransform="matrix(407.018,0,0,14.778,1959.755,2097.676)">
			<stop offset="0" stop-color="#3d494c"/>
			<stop offset="1" stop-color="#8f9697"/>
		</linearGradient>
		<linearGradient id="g5" x2="1" gradientUnits="userSpaceOnUse" gradientTransform="matrix(23.849,0,0,517.248,1959.755,1580.429)">
			<stop offset="0" stop-color="#3d494c"/>
			<stop offset="1" stop-color="#8f9697"/>
		</linearGradient>
		<linearGradient id="g6" x2="1" gradientUnits="userSpaceOnUse" gradientTransform="matrix(383.169,0,0,34.15,1983.604,1689.078)">
			<stop offset="0" stop-color="#3d494c"/>
			<stop offset="1" stop-color="#8f9697"/>
		</linearGradient>
		<linearGradient id="g7" x2="1" gradientUnits="userSpaceOnUse" gradientTransform="matrix(383.169,0,0,34.15,1983.604,1825.403)">
			<stop offset="0" stop-color="#3d494c"/>
			<stop offset="1" stop-color="#8f9697"/>
		</linearGradient>
		<linearGradient id="g8" x2="1" gradientUnits="userSpaceOnUse" gradientTransform="matrix(383.169,0,0,34.15,1983.604,1961.727)">
			<stop offset="0" stop-color="#3d494c"/>
			<stop offset="1" stop-color="#8f9697"/>
		</linearGradient>
		<linearGradient id="g9" x2="1" gradientUnits="userSpaceOnUse" gradientTransform="matrix(0,58.048,-177.869,0,1430.737,1410.632)">
			<stop offset=".005" stop-color="#adb1b2"/>
			<stop offset="1" stop-color="#f6f7f7"/>
		</linearGradient>
		<linearGradient id="g10" x2="1" gradientUnits="userSpaceOnUse" gradientTransform="matrix(0,-69.474,589.2,0,1440.966,1511.726)">
			<stop offset=".005" stop-color="#adb1b2"/>
			<stop offset="1" stop-color="#f6f7f7"/>
		</linearGradient>
		<linearGradient id="g11" x2="1" gradientUnits="userSpaceOnUse" gradientTransform="matrix(320.013,0,0,10.781,1277.319,1493.04)">
			<stop offset="0" stop-color="#3d494c"/>
			<stop offset="1" stop-color="#8f9697"/>
		</linearGradient>
		<linearGradient id="g12" x2="1" gradientUnits="userSpaceOnUse" gradientTransform="matrix(-703.538,0,0,-535.103,1789.094,893.602)">
			<stop offset="0" stop-color="#3d494c"/>
			<stop offset="1" stop-color="#2d2f4f"/>
		</linearGradient>
		<linearGradient id="g13" x2="1" gradientUnits="userSpaceOnUse" gradientTransform="matrix(665.949,0,0,68.239,1104.356,912.356)">
			<stop offset="0" stop-color="#38aca8"/>
			<stop offset="1" stop-color="#5f637a"/>
		</linearGradient>
		<linearGradient id="g14" x2="1" gradientUnits="userSpaceOnUse" gradientTransform="matrix(-12.919,0,0,-12.919,1746.13,935.698)">
			<stop offset="0" stop-color="#00a9e4"/>
			<stop offset="1" stop-color="#eef0ee"/>
		</linearGradient>
		<linearGradient id="g15" x2="1" gradientUnits="userSpaceOnUse" gradientTransform="matrix(-12.919,0,0,-12.919,1721.467,935.698)">
			<stop offset="0" stop-color="#ffac06"/>
			<stop offset=".99" stop-color="#ed3333"/>
		</linearGradient>
		<linearGradient id="g16" x2="1" gradientUnits="userSpaceOnUse" gradientTransform="matrix(196.487,0,0,24.15,1180.927,970.994)">
			<stop offset="0" stop-color="#ffac06"/>
			<stop offset="1" stop-color="#f25227"/>
		</linearGradient>
		<linearGradient id="g17" x2="1" gradientUnits="userSpaceOnUse" gradientTransform="matrix(545,0,0,37.645,1845.929,1034.173)">
			<stop offset="0" stop-color="#38aca8"/>
			<stop offset="1" stop-color="#5f637a"/>
		</linearGradient>
		<linearGradient id="g18" x2="1" gradientUnits="userSpaceOnUse" gradientTransform="matrix(.885,100.886,-175.03,1.535,2042.427,1111.757)">
			<stop offset="0" stop-color="#ffac06"/>
			<stop offset="1" stop-color="#f25227"/>
		</linearGradient>
		<linearGradient id="g19" x2="1" gradientUnits="userSpaceOnUse" gradientTransform="matrix(194.507,0,0,133.748,1887.621,1290.066)">
			<stop offset="0" stop-color="#38aca8"/>
			<stop offset="1" stop-color="#5f637a"/>
		</linearGradient>
		<linearGradient id="g20" x2="1" gradientUnits="userSpaceOnUse" gradientTransform="matrix(180.57,0,0,103.273,1894.561,1314.439)">
			<stop offset="0" stop-color="#38aca8"/>
			<stop offset="1" stop-color="#5f637a"/>
		</linearGradient>
		<linearGradient id="g21" x2="1" gradientUnits="userSpaceOnUse" gradientTransform="matrix(28.481,0,0,25.047,2012.625,1307.224)">
			<stop offset="0" stop-color="#38aca8"/>
			<stop offset="1" stop-color="#5f637a"/>
		</linearGradient>
		<linearGradient id="g22" x2="1" gradientUnits="userSpaceOnUse" gradientTransform="matrix(14.857,0,0,13.066,1867.032,1046.463)">
			<stop offset="0" stop-color="#00a9e4"/>
			<stop offset="1" stop-color="#eef0ee"/>
		</linearGradient>
		<linearGradient id="g23" x2="1" gradientUnits="userSpaceOnUse" gradientTransform="matrix(14.857,0,0,13.066,1895.396,1046.463)">
			<stop offset="0" stop-color="#ffac06"/>
			<stop offset=".99" stop-color="#ed3333"/>
		</linearGradient>
		<linearGradient id="g24" x2="1" gradientUnits="userSpaceOnUse" gradientTransform="matrix(22.356,380.052,-499.512,29.383,1684.339,1085.544)">
			<stop offset="0" stop-color="#3d494c"/>
			<stop offset="1" stop-color="#2d2f4f"/>
		</linearGradient>
		<linearGradient id="g25" x2="1" gradientUnits="userSpaceOnUse" gradientTransform="matrix(576.563,0,0,37.645,1237.335,1034.173)">
			<stop offset="0" stop-color="#38aca8"/>
			<stop offset="1" stop-color="#5f637a"/>
		</linearGradient>
		<linearGradient id="g26" x2="1" gradientUnits="userSpaceOnUse" gradientTransform="matrix(200.217,0,0,9.3,1389.333,1122.718)">
			<stop offset="0" stop-color="#ffac06"/>
			<stop offset=".99" stop-color="#ed3333"/>
		</linearGradient>
		<linearGradient id="g27" x2="1" gradientUnits="userSpaceOnUse" gradientTransform="matrix(129.462,0,0,9.3,1397.714,1301.519)">
			<stop offset="0" stop-color="#ffac06"/>
			<stop offset=".99" stop-color="#ed3333"/>
		</linearGradient>
		<linearGradient id="g28" x2="1" gradientUnits="userSpaceOnUse" gradientTransform="matrix(129.462,0,0,9.3,1585.452,1258.169)">
			<stop offset="0" stop-color="#ffac06"/>
			<stop offset=".99" stop-color="#ed3333"/>
		</linearGradient>
		<linearGradient id="g29" x2="1" gradientUnits="userSpaceOnUse" gradientTransform="matrix(129.462,0,0,9.3,1636.517,1144.393)">
			<stop offset="0" stop-color="#ffac06"/>
			<stop offset=".99" stop-color="#ed3333"/>
		</linearGradient>
		<linearGradient id="g30" x2="1" gradientUnits="userSpaceOnUse" gradientTransform="matrix(129.462,0,0,9.3,1653.16,1377.548)">
			<stop offset="0" stop-color="#ffac06"/>
			<stop offset=".99" stop-color="#ed3333"/>
		</linearGradient>
		<linearGradient id="g31" x2="1" gradientUnits="userSpaceOnUse" gradientTransform="matrix(-4.624,189.084,-275.553,-6.739,843.069,1178.664)">
			<stop offset="0" stop-color="#ffd6a9"/>
			<stop offset="1" stop-color="#e2973d"/>
		</linearGradient>
		<linearGradient id="g32" x2="1" gradientUnits="userSpaceOnUse" gradientTransform="matrix(114.16,0,0,6.138,506.678,776.061)">
			<stop offset="0" stop-color="#ffac06"/>
			<stop offset=".99" stop-color="#ed3333"/>
		</linearGradient>
		<linearGradient id="g33" x2="1" gradientUnits="userSpaceOnUse" gradientTransform="matrix(73.817,0,0,6.138,511.457,894.058)">
			<stop offset="0" stop-color="#ffac06"/>
			<stop offset=".99" stop-color="#ed3333"/>
		</linearGradient>
		<linearGradient id="g34" x2="1" gradientUnits="userSpaceOnUse" gradientTransform="matrix(73.817,0,0,6.138,618.502,865.449)">
			<stop offset="0" stop-color="#ffac06"/>
			<stop offset=".99" stop-color="#ed3333"/>
		</linearGradient>
		<linearGradient id="g35" x2="1" gradientUnits="userSpaceOnUse" gradientTransform="matrix(73.817,0,0,6.138,647.619,790.365)">
			<stop offset="0" stop-color="#ffac06"/>
			<stop offset=".99" stop-color="#ed3333"/>
		</linearGradient>
		<linearGradient id="g36" x2="1" gradientUnits="userSpaceOnUse" gradientTransform="matrix(73.817,0,0,6.138,657.108,944.231)">
			<stop offset="0" stop-color="#ffac06"/>
			<stop offset=".99" stop-color="#ed3333"/>
		</linearGradient>
		<linearGradient id="g37" x2="1" gradientUnits="userSpaceOnUse" gradientTransform="matrix(319.934,0,0,319.971,1792.059,917.812)">
			<stop offset=".005" stop-color="#adb1b2"/>
			<stop offset="1" stop-color="#6c747a"/>
		</linearGradient>
		<linearGradient id="g38" x2="1" gradientUnits="userSpaceOnUse" gradientTransform="matrix(-36.139,57.559,-21.083,-13.237,2143.031,1175.532)">
			<stop offset=".005" stop-color="#adb1b2"/>
			<stop offset="1" stop-color="#6c747a"/>
		</linearGradient>
		<linearGradient id="g39" x2="1" gradientUnits="userSpaceOnUse" gradientTransform="matrix(-90.921,144.812,-362.818,-227.798,2263.023,1176.628)">
			<stop offset=".005" stop-color="#adb1b2"/>
			<stop offset="1" stop-color="#eef0ee"/>
		</linearGradient>
		<linearGradient id="g40" x2="1" gradientUnits="userSpaceOnUse" gradientTransform="matrix(-148.046,232.679,-560.437,-356.588,2433.024,1255.792)">
			<stop offset=".005" stop-color="#adb1b2"/>
			<stop offset="1" stop-color="#6c747a"/>
		</linearGradient>
		<linearGradient id="g41" x2="1" gradientUnits="userSpaceOnUse" gradientTransform="matrix(-50.751,76.605,-109.802,-72.744,1811.971,2124.903)">
			<stop offset="0" stop-color="#3d494c"/>
			<stop offset="1" stop-color="#2d2f4f"/>
		</linearGradient>
		<linearGradient id="g42" x2="1" gradientUnits="userSpaceOnUse" gradientTransform="matrix(1.173,109.054,-149.405,1.607,1595.458,1744.826)">
			<stop offset="0" stop-color="#3d494c"/>
			<stop offset="1" stop-color="#2d2f4f"/>
		</linearGradient>
		<linearGradient id="g43" x2="1" gradientUnits="userSpaceOnUse" gradientTransform="matrix(-118.234,6.142,-22.992,-442.608,1753.327,2188.861)">
			<stop offset="0" stop-color="#3d494c"/>
			<stop offset="1" stop-color="#2d2f4f"/>
		</linearGradient>
		<linearGradient id="g44" x2="1" gradientUnits="userSpaceOnUse" gradientTransform="matrix(-216.982,327.52,-681.611,-451.568,1956.756,1694.771)">
			<stop offset="0" stop-color="#3d494c"/>
			<stop offset="1" stop-color="#2d2f4f"/>
		</linearGradient>
		<linearGradient id="g45" x2="1" gradientUnits="userSpaceOnUse" gradientTransform="matrix(-68.084,102.768,-192.542,-127.559,1978.197,2020.98)">
			<stop offset="0" stop-color="#3d494c"/>
			<stop offset="1" stop-color="#2d2f4f"/>
		</linearGradient>
		<linearGradient id="g46" x2="1" gradientUnits="userSpaceOnUse" gradientTransform="matrix(122.819,0,0,187.85,1147.457,1143.764)">
			<stop offset="0" stop-color="#ffd9d9"/>
			<stop offset="1" stop-color="#efb4b4"/>
		</linearGradient>
		<linearGradient id="g47" x2="1" gradientUnits="userSpaceOnUse" gradientTransform="matrix(46.423,-102.547,87.605,39.659,975.704,1236.355)">
			<stop offset="0" stop-color="#3d494c"/>
			<stop offset="1" stop-color="#2d2f4f"/>
		</linearGradient>
		<linearGradient id="g48" x2="1" gradientUnits="userSpaceOnUse" gradientTransform="matrix(-695.719,214.567,-202.301,-655.949,1666.607,1761.744)">
			<stop offset="0" stop-color="#38aca8"/>
			<stop offset="1" stop-color="#5f637a"/>
		</linearGradient>
		<linearGradient id="g49" x2="1" gradientUnits="userSpaceOnUse" gradientTransform="matrix(48.214,147.657,-302.931,98.916,1187.723,1048.851)">
			<stop offset="0" stop-color="#3d494c"/>
			<stop offset="1" stop-color="#2d2f4f"/>
		</linearGradient>
		<linearGradient id="g50" x2="1" gradientUnits="userSpaceOnUse" gradientTransform="matrix(32.212,-71.155,37.87,17.144,1327.085,1314.82)">
			<stop offset="0" stop-color="#ffd9d9"/>
			<stop offset="1" stop-color="#efb4b4"/>
		</linearGradient>
		<linearGradient id="g51" x2="1" gradientUnits="userSpaceOnUse" gradientTransform="matrix(0,-147.648,463.724,0,1206.974,2287.36)">
			<stop offset="0" stop-color="#3d494c"/>
			<stop offset="1" stop-color="#2d2f4f"/>
		</linearGradient>
		<linearGradient id="g52" x2="1" gradientUnits="userSpaceOnUse" gradientTransform="matrix(0,-157.978,503.317,0,1218.667,2290.17)">
			<stop offset=".005" stop-color="#adb1b2"/>
			<stop offset="1" stop-color="#eef0ee"/>
		</linearGradient>
		<linearGradient id="g53" x2="1" gradientUnits="userSpaceOnUse" gradientTransform="matrix(0,-620.748,858.401,0,1314.582,2009.437)">
			<stop offset=".005" stop-color="#adb1b2"/>
			<stop offset="1" stop-color="#eef0ee"/>
		</linearGradient>
		<linearGradient id="g54" x2="1" gradientUnits="userSpaceOnUse" gradientTransform="matrix(-71.677,-413.338,414.974,-71.961,927.742,1889.425)">
			<stop offset="0" stop-color="#3d494c"/>
			<stop offset="1" stop-color="#8f9697"/>
		</linearGradient>
		<linearGradient id="g55" x2="1" gradientUnits="userSpaceOnUse" gradientTransform="matrix(-112.639,0,0,-31.584,1264.434,1941.526)">
			<stop offset=".005" stop-color="#adb1b2"/>
			<stop offset="1" stop-color="#eef0ee"/>
		</linearGradient>
		<linearGradient id="g56" x2="1" gradientUnits="userSpaceOnUse" gradientTransform="matrix(-48.031,0,0,-174.928,1227.573,1985.324)">
			<stop offset=".005" stop-color="#adb1b2"/>
			<stop offset="1" stop-color="#eef0ee"/>
		</linearGradient>
		<linearGradient id="g57" x2="1" gradientUnits="userSpaceOnUse" gradientTransform="matrix(-92.738,0,0,-49.604,1245.445,2099.975)">
			<stop offset=".005" stop-color="#adb1b2"/>
			<stop offset="1" stop-color="#eef0ee"/>
		</linearGradient>
		<linearGradient id="g58" x2="1" gradientUnits="userSpaceOnUse" gradientTransform="matrix(736.164,0,0,449.541,1021.742,130.664)">
			<stop offset="0" stop-color="#38aca8"/>
			<stop offset="1" stop-color="#5f637a"/>
		</linearGradient>
		<linearGradient id="g59" x2="1" gradientUnits="userSpaceOnUse" gradientTransform="matrix(-137.335,-500.292,696.638,-191.234,1314.901,717.38)">
			<stop offset="0" stop-color="#c4c7c8"/>
			<stop offset="1" stop-color="#ffffff"/>
		</linearGradient>
		<linearGradient id="g60" x2="1" gradientUnits="userSpaceOnUse" gradientTransform="matrix(234.091,-53.036,53.198,234.804,1246.68,398.716)">
			<stop offset="0" stop-color="#38aca8"/>
			<stop offset="1" stop-color="#5f637a"/>
		</linearGradient>
		<linearGradient id="g61" x2="1" gradientUnits="userSpaceOnUse" gradientTransform="matrix(594.247,-134.634,592.063,2613.235,1050.093,382.362)">
			<stop offset="0" stop-color="#38aca8"/>
			<stop offset="1" stop-color="#5f637a"/>
		</linearGradient>
		<linearGradient id="g62" x2="1" gradientUnits="userSpaceOnUse" gradientTransform="matrix(233.991,-53.014,53.153,234.604,1244.794,363.371)">
			<stop offset="0" stop-color="#38aca8"/>
			<stop offset="1" stop-color="#5f637a"/>
		</linearGradient>
		<linearGradient id="g63" x2="1" gradientUnits="userSpaceOnUse" gradientTransform="matrix(368.801,-29.984,29.984,368.801,1856.67,714.844)">
			<stop offset="0" stop-color="#c4c7c8"/>
			<stop offset="1" stop-color="#e7e8e9"/>
		</linearGradient>
		<linearGradient id="g64" x2="1" gradientUnits="userSpaceOnUse" gradientTransform="matrix(368.759,-29.98,29.98,368.759,1825.154,726.859)">
			<stop offset="0" stop-color="#c4c7c8"/>
			<stop offset="1" stop-color="#e7e8e9"/>
		</linearGradient>
	</defs>
	<style>
		.s0 { fill: url(#g1) } 
		.s1 { fill: url(#g2) } 
		.s2 { fill: url(#g3) } 
		.s3 { fill: url(#g4) } 
		.s4 { fill: url(#g5) } 
		.s5 { fill: url(#g6) } 
		.s6 { fill: url(#g7) } 
		.s7 { fill: url(#g8) } 
		.s8 { fill: url(#g9) } 
		.s9 { fill: url(#g10) } 
		.s10 { fill: url(#g11) } 
		.s11 { fill: url(#g12) } 
		.s12 { fill: #d8d8d8 } 
		.s13 { fill: #ffffff } 
		.s14 { fill: url(#g13) } 
		.s15 { fill: url(#g14) } 
		.s16 { fill: url(#g15) } 
		.s17 { fill: url(#g16) } 
		.s18 { fill: #f3f7f6 } 
		.s19 { fill: #fefefe } 
		.s20 { fill: #0a255a } 
		.s21 { fill: #babbbf } 
		.s22 { fill: #e3e2e8 } 
		.s23 { fill: url(#g17) } 
		.s24 { fill: url(#g18) } 
		.s25 { fill: url(#g19) } 
		.s26 { fill: url(#g20) } 
		.s27 { fill: url(#g21) } 
		.s28 { fill: url(#g22) } 
		.s29 { fill: url(#g23) } 
		.s30 { fill: url(#g24) } 
		.s31 { fill: url(#g25) } 
		.s32 { opacity: .7;fill: #e3e2e8 } 
		.s33 { opacity: .7;fill: url(#g26) } 
		.s34 { opacity: .7;fill: #5cc7a4 } 
		.s35 { opacity: .7;fill: url(#g27) } 
		.s36 { opacity: .7;fill: url(#g28) } 
		.s37 { opacity: .7;fill: url(#g29) } 
		.s38 { opacity: .7;fill: url(#g30) } 
		.s39 { fill: #ffffff;stroke: #b2b2b2;stroke-miterlimit:10 } 
		.s40 { fill: url(#g31) } 
		.s41 { opacity: .7;fill: url(#g32) } 
		.s42 { opacity: .7;fill: url(#g33) } 
		.s43 { opacity: .7;fill: url(#g34) } 
		.s44 { opacity: .7;fill: url(#g35) } 
		.s45 { opacity: .7;fill: url(#g36) } 
		.s46 { fill: url(#g37) } 
		.s47 { fill: url(#g38) } 
		.s48 { fill: url(#g39) } 
		.s49 { fill: url(#g40) } 
		.s50 { opacity: .6;fill: #ffffff } 
		.s51 { fill: url(#g41) } 
		.s52 { fill: url(#g42) } 
		.s53 { fill: url(#g43) } 
		.s54 { fill: url(#g44) } 
		.s55 { fill: url(#g45) } 
		.s56 { fill: url(#g46) } 
		.s57 { fill: url(#g47) } 
		.s58 { fill: url(#g48) } 
		.s59 { fill: url(#g49) } 
		.s60 { fill: url(#g50) } 
		.s61 { fill: url(#g51) } 
		.s62 { fill: url(#g52) } 
		.s63 { fill: url(#g53) } 
		.s64 { fill: url(#g54) } 
		.s65 { fill: url(#g55) } 
		.s66 { fill: url(#g56) } 
		.s67 { fill: url(#g57) } 
		.s68 { opacity: .2;fill: #171919 } 
		.s69 { fill: none;stroke: #94999c;stroke-miterlimit:10;stroke-width: 4 } 
		.s70 { fill: url(#g58) } 
		.s71 { fill: url(#g59) } 
		.s72 { fill: url(#g60) } 
		.s73 { fill: url(#g61) } 
		.s74 { fill: url(#g62) } 
		.s75 { opacity: 0;fill: #060b19 } 
		.s76 { opacity: .1;fill: #060b19 } 
		.s77 { opacity: .2;fill: #060b19 } 
		.s78 { opacity: .3;fill: #060b19 } 
		.s79 { opacity: .4;fill: #060b19 } 
		.s80 { opacity: .5;fill: #060b19 } 
		.s81 { opacity: .6;fill: #060b19 } 
		.s82 { opacity: .7;fill: #060b19 } 
		.s83 { opacity: .8;fill: #060b19 } 
		.s84 { opacity: .9;fill: #060b19 } 
		.s85 { opacity: 1;fill: #060b19 } 
		.s86 { fill: #060b19 } 
		.s87 { fill: url(#g63) } 
		.s88 { fill: url(#g64) } 
	</style>
	<g id="_Artboards_">
	</g>
	<g id="Layer 1">
		<g id="&lt;Group&gt;">
			<g id="&lt;Group&gt;">
			</g>
		</g>
		<g id="&lt;Group&gt;">
			<g id="&lt;Group&gt;">
				<path id="&lt;Path&gt;" class="s0" d="m2414.3 1549.9v33.3 4.1 588.4h-46.7v-588.4h-1496.9v588.4h-46.7v-588.4-4.1-33.3z"/>
				<path id="&lt;Path&gt;" class="s1" d="m855.3 1443.5h1532.2l26.8 106.4h-1590.3z"/>
			</g>
			<path id="&lt;Path&gt;" class="s2" d="m1983.6 2097.7h383.2v-510.4h-383.2z"/>
			<path id="&lt;Path&gt;" class="s3" d="m1959.8 2112.5h407v-14.8h-407z"/>
			<path id="&lt;Path&gt;" class="s4" d="m1983.6 1580.4h-23.8v517.3h23.8z"/>
			<path id="&lt;Path&gt;" class="s5" d="m2145.5 1712.1v-23h66.6v23h154.7v11.1h-383.2v-11.1z"/>
			<path id="&lt;Path&gt;" class="s6" d="m2145.5 1848.5v-23.1h66.6v23.1h154.7v11.1h-383.2v-11.1z"/>
			<path id="&lt;Path&gt;" class="s7" d="m2145.5 1984.8v-23.1h66.6v23.1h154.7v11.1h-383.2v-11.1z"/>
			<g id="&lt;Group&gt;">
				<g id="&lt;Group&gt;">
					<g id="&lt;Group&gt;">
						<path id="&lt;Path&gt;" class="s8" d="m1378.7 1404.9h69.2 1 50.4l17.5 50.7h-67.9-1-86.6z"/>
						<path id="&lt;Path&gt;" class="s9" d="m1360.8 1455.6h87.1 0.5 68.4l80.5 37.4h-148.9-0.5-167.7z"/>
						<path id="&lt;Path&gt;" class="s10" d="m1277.9 1503.8h318.9c0.3 0 0.5-0.2 0.5-0.6v-9.6c0-0.3-0.2-0.6-0.5-0.6h-318.9c-0.3 0-0.6 0.3-0.6 0.6v9.6c0 0.4 0.3 0.6 0.6 0.6z"/>
					</g>
					<path id="&lt;Path&gt;" class="s11" d="m1088.9 1428.7h696.8c1.9 0 3.4-1.5 3.4-3.4v-528.3c0-1.9-1.5-3.4-3.4-3.4h-696.8c-1.8 0-3.3 1.5-3.3 3.4v528.3c0 1.9 1.5 3.4 3.3 3.4z"/>
					<path id="&lt;Path&gt;" class="s12" d="m1104.4 925.1v442.8h665.9v-442.8c0-7-5.7-12.7-12.8-12.7h-640.4c-7 0-12.7 5.7-12.7 12.7z"/>
					<path id="&lt;Compound Path&gt;" fill-rule="evenodd" class="s13" d="m1437.3 1377c9.6 0 17.4 7.8 17.4 17.4 0 9.6-7.8 17.4-17.4 17.4-9.6 0-17.4-7.8-17.4-17.4 0-9.6 7.8-17.4 17.4-17.4zm0 31.5c7.8 0 14.1-6.3 14.1-14.1 0-7.8-6.3-14.1-14.1-14.1-7.7 0-14.1 6.3-14.1 14.1 0 7.8 6.4 14.1 14.1 14.1z"/>
					<path id="&lt;Path&gt;" class="s14" d="m1104.4 925.1v55.5h665.9v-55.5c0-7-5.7-12.7-12.8-12.7h-640.4c-7 0-12.7 5.7-12.7 12.7z"/>
					<path id="&lt;Path&gt;" class="s15" d="m1733.2 942.2c0 3.5 2.9 6.4 6.5 6.4 3.5 0 6.4-2.9 6.4-6.4 0-3.6-2.9-6.5-6.4-6.5-3.6 0-6.5 2.9-6.5 6.5z"/>
					<path id="&lt;Path&gt;" class="s16" d="m1708.5 942.2c0 3.5 2.9 6.4 6.5 6.4 3.6 0 6.5-2.9 6.5-6.4 0-3.6-2.9-6.5-6.5-6.5-3.6 0-6.5 2.9-6.5 6.5z"/>
					<path id="&lt;Path&gt;" class="s13" d="m1683.9 942.2c0 3.5 2.9 6.4 6.4 6.4 3.6 0 6.5-2.9 6.5-6.4 0-3.6-2.9-6.5-6.5-6.5-3.5 0-6.4 2.9-6.4 6.5z"/>
					<g id="&lt;Group&gt;">
						<path id="&lt;Path&gt;" class="s17" d="m1212.8 971h432c1.6 0 2.9-1.3 2.9-2.9v-48c0-1.6-1.3-2.9-2.9-2.9h-432c-1.6 0-2.8 1.3-2.8 2.9v48c0 1.6 1.2 2.9 2.8 2.9z"/>
						<path id="&lt;Path&gt;" class="s13" d="m1283.7 968.4h356.9c1.4 0 2.6-1.1 2.6-2.6v-43.5c0-1.4-1.2-2.5-2.6-2.5h-356.9c-1.5 0-2.6 1.1-2.6 2.5v43.5c0 1.5 1.1 2.6 2.6 2.6z"/>
						<path id="&lt;Compound Path&gt;" fill-rule="evenodd" class="s18" d="m1243.7 950.2l0.3 0.2 5.5-7.2c-0.5-0.3-0.6-1-0.2-1.4l0.4-0.6c-2.5-3.3-2.7-7.9 0.1-11.3 3-3.4 8-4.1 11.8-1.7 4.4 2.9 5.4 8.9 2.3 13-2.5 3.4-6.8 4.3-10.5 2.8l-0.4 0.6c-0.3 0.4-1 0.5-1.4 0.2l-5.4 7.2 0.3 0.2c0.2 0.2 0.2 0.5 0.1 0.7l-6.3 8.3c-0.2 0.3-0.6 0.3-0.8 0.1l-2.6-1.9c-0.2-0.2-0.3-0.6-0.1-0.8l6.3-8.3c0.1-0.2 0.4-0.3 0.6-0.1zm18.5-9.3c3.3-3.5 2.5-9.1-1.6-11.5-3-1.9-7-1.3-9.4 1.3-3.3 3.5-2.5 9.1 1.6 11.5 3 1.9 7 1.3 9.4-1.3z"/>
					</g>
					<path id="&lt;Path&gt;" class="s19" d="m1124.5 927h27.7q0.1 0 0.1-0.1v-1.8q0-0.1-0.1-0.1h-27.7q-0.1 0-0.1 0.1v1.8q0 0.1 0.1 0.1z"/>
					<path id="&lt;Path&gt;" class="s19" d="m1124.5 934.5h27.7q0.1 0 0.1-0.1v-1.8q0-0.1-0.1-0.1h-27.7q-0.1 0-0.1 0.1v1.8q0 0.1 0.1 0.1z"/>
					<path id="&lt;Path&gt;" class="s19" d="m1124.5 942h27.7q0.1 0 0.1-0.1v-1.8q0-0.1-0.1-0.1h-27.7q-0.1 0-0.1 0.1v1.8q0 0.1 0.1 0.1z"/>
					<path id="&lt;Path&gt;" class="s20" d="m1740.8 1367.9h32.9v-387.3h-32.9z"/>
					<path id="&lt;Path&gt;" class="s21" d="m1424.5 952.6h198.5c0.8 0 1.4-0.6 1.4-1.4v-14.3c0-0.7-0.6-1.4-1.4-1.4h-198.5c-0.8 0-1.4 0.7-1.4 1.4v14.3c0 0.8 0.6 1.4 1.4 1.4z"/>
				</g>
			</g>
			<g id="&lt;Group&gt;">
				<g id="&lt;Group&gt;">
					<path id="&lt;Path&gt;" class="s22" d="m2390.9 1457.9h-545v-423.7h545z"/>
					<path id="&lt;Path&gt;" class="s23" d="m2390.9 1071.8h-545v-37.6h545z"/>
					<path id="&lt;Path&gt;" class="s13" d="m2385 1253.9h-519.3v-154.9h519.3z"/>
					<path id="&lt;Path&gt;" class="s13" d="m2101.9 1447.3h-236.2v-180.7h236.2z"/>
					<path id="&lt;Path&gt;" class="s13" d="m2372.6 1447.3h-253.5v-180.7h253.5z"/>
					<path id="&lt;Path&gt;" class="s24" d="m2095.8 1241.4h-181c-12.9 0-23.2-10.4-23.2-23.2v-83.5c0-12.9 10.3-23.2 23.2-23.2h181c12.9 0 23.3 10.3 23.3 23.2v83.5c0 12.8-10.4 23.2-23.3 23.2z"/>
					<path id="&lt;Path&gt;" class="s13" d="m1984.9 1152.1v48.7l40.8-24.7z"/>
					<g id="&lt;Group&gt;">
						<path id="&lt;Path&gt;" class="s22" d="m2284.9 1134.5h-120.9c-0.4 0-0.7-0.4-0.7-0.8v-7.8c0-0.4 0.3-0.7 0.7-0.7h120.9c0.4 0 0.7 0.3 0.7 0.7v7.8c0 0.4-0.3 0.8-0.7 0.8z"/>
						<path id="&lt;Path&gt;" class="s22" d="m2352 1154.9h-188c-0.4 0-0.7-0.3-0.7-0.8v-7.7c0-0.5 0.3-0.8 0.7-0.8h188c0.4 0 0.8 0.3 0.8 0.8v7.7c0 0.5-0.4 0.8-0.8 0.8z"/>
						<path id="&lt;Path&gt;" class="s22" d="m2324 1175.3h-160c-0.4 0-0.7-0.3-0.7-0.7v-7.8c0-0.4 0.3-0.8 0.7-0.8h160c0.4 0 0.7 0.4 0.7 0.8v7.8c0 0.4-0.3 0.7-0.7 0.7z"/>
						<path id="&lt;Path&gt;" class="s22" d="m2315.1 1195.7h-151.1c-0.4 0-0.7-0.3-0.7-0.7v-7.8c0-0.4 0.3-0.8 0.7-0.8h151.1c0.4 0 0.8 0.4 0.8 0.8v7.8c0 0.4-0.4 0.7-0.8 0.7z"/>
						<path id="&lt;Path&gt;" class="s22" d="m2259.9 1216.2h-95.9c-0.4 0-0.7-0.4-0.7-0.8v-7.8c0-0.4 0.3-0.7 0.7-0.7h95.9c0.4 0 0.8 0.3 0.8 0.7v7.8c0 0.4-0.4 0.8-0.8 0.8z"/>
					</g>
					<g id="&lt;Group&gt;">
						<path id="&lt;Path&gt;" class="s22" d="m2303.2 1286.5h-44.5c-0.4 0-0.7-0.3-0.7-0.6v-6.9c0-0.4 0.3-0.7 0.7-0.7h44.5c0.4 0 0.7 0.3 0.7 0.7v6.9c0 0.3-0.3 0.6-0.7 0.6z"/>
						<path id="&lt;Path&gt;" class="s22" d="m2362.5 1304.6h-103.8c-0.4 0-0.7-0.3-0.7-0.7v-6.9c0-0.3 0.3-0.6 0.7-0.6h103.8c0.4 0 0.7 0.3 0.7 0.6v6.9c0 0.4-0.3 0.7-0.7 0.7z"/>
						<path id="&lt;Path&gt;" class="s22" d="m2337.8 1322.6h-79.1c-0.4 0-0.7-0.3-0.7-0.6v-6.9c0-0.4 0.3-0.7 0.7-0.7h79.1c0.3 0 0.6 0.3 0.6 0.7v6.9c0 0.3-0.3 0.6-0.6 0.6z"/>
						<path id="&lt;Path&gt;" class="s22" d="m2329.9 1340.7h-71.2c-0.4 0-0.7-0.3-0.7-0.7v-6.9c0-0.4 0.3-0.7 0.7-0.7h71.2c0.4 0 0.7 0.3 0.7 0.7v6.9c0 0.4-0.3 0.7-0.7 0.7z"/>
						<path id="&lt;Path&gt;" class="s22" d="m2309.9 1358.7h-51.2c-0.4 0-0.7-0.3-0.7-0.7v-6.8c0-0.4 0.3-0.7 0.7-0.7h51.2c0.4 0 0.7 0.3 0.7 0.7v6.8c0 0.4-0.3 0.7-0.7 0.7z"/>
					</g>
					<g id="&lt;Group&gt;">
						<path id="&lt;Path&gt;" class="s22" d="m2230.8 1379.5h-89.5c-0.3 0-0.6-0.3-0.6-0.6v-6.9c0-0.4 0.3-0.7 0.6-0.7h89.5c0.3 0 0.6 0.3 0.6 0.7v6.9c0 0.3-0.3 0.6-0.6 0.6z"/>
						<path id="&lt;Path&gt;" class="s22" d="m2350.9 1397.6h-209.6c-0.3 0-0.6-0.3-0.6-0.7v-6.9c0-0.3 0.3-0.6 0.6-0.6h209.6c0.3 0 0.6 0.3 0.6 0.6v6.9c0 0.4-0.3 0.7-0.6 0.7z"/>
						<path id="&lt;Path&gt;" class="s22" d="m2340.1 1415.6h-198.8c-0.3 0-0.6-0.3-0.6-0.7v-6.8c0-0.4 0.3-0.7 0.6-0.7h198.8c0.4 0 0.7 0.3 0.7 0.7v6.8c0 0.4-0.3 0.7-0.7 0.7z"/>
						<path id="&lt;Path&gt;" class="s22" d="m2212.6 1433.6h-71.3c-0.3 0-0.6-0.3-0.6-0.6v-6.9c0-0.4 0.3-0.7 0.6-0.7h71.3c0.3 0 0.7 0.3 0.7 0.7v6.9c0 0.3-0.4 0.6-0.7 0.6z"/>
					</g>
					<g id="&lt;Group&gt;">
						<path id="&lt;Path&gt;" class="s25" d="m2079.9 1423.8h-190.1c-1.2 0-2.2-1-2.2-2.2v-129.3c0-1.3 1-2.2 2.2-2.2h190.1c1.2 0 2.2 0.9 2.2 2.2v129.3c0 1.2-1 2.2-2.2 2.2z"/>
						<path id="&lt;Path&gt;" class="s18" d="m2075.1 1303.5v106.9c0 4-3.7 7.3-8.3 7.3h-164c-4.5 0-8.2-3.3-8.2-7.3v-106.9c0-4.1 3.7-7.3 8.2-7.3h164c4.6 0 8.3 3.2 8.3 7.3z"/>
						<path id="&lt;Path&gt;" class="s26" d="m2075.1 1366.8v43.6c0 4-3.7 7.3-8.3 7.3h-164c-4.5 0-8.2-3.3-8.2-7.3v-48.5l55.6-47.5 49.7 56.4 38.9-30.9z"/>
						<path id="&lt;Path&gt;" class="s27" d="m2041.1 1319.7c0 7-6.4 12.6-14.2 12.6-7.9 0-14.3-5.6-14.3-12.6 0-6.9 6.4-12.5 14.3-12.5 7.8 0 14.2 5.6 14.2 12.5z"/>
					</g>
					<g id="&lt;Group&gt;">
						<path id="&lt;Path&gt;" class="s12" d="m2237.3 1351.6h-104.6c-0.5 0-0.9-0.5-0.9-1v-71.3c0-0.5 0.4-1 0.9-1h104.6c0.6 0 1 0.5 1 1v71.3c0 0.5-0.4 1-1 1z"/>
						<path id="&lt;Path&gt;" class="s18" d="m2234.4 1285.7v58.5c0 2.2-2 4-4.5 4h-89.8c-2.5 0-4.5-1.8-4.5-4v-58.5c0-2.2 2-4 4.5-4h89.8c2.5 0 4.5 1.8 4.5 4z"/>
						<path id="&lt;Path&gt;" class="s12" d="m2234.4 1320.4v23.8c0 2.2-2 4-4.5 4h-89.8c-2.5 0-4.5-1.8-4.5-4v-26.5l30.4-26 27.2 30.8 21.4-16.9z"/>
						<path id="&lt;Path&gt;" class="s13" d="m2215.8 1294.6c0 3.8-3.5 6.8-7.8 6.8-4.3 0-7.8-3-7.8-6.8 0-3.8 3.5-6.9 7.8-6.9 4.3 0 7.8 3.1 7.8 6.9z"/>
					</g>
					<g id="&lt;Group&gt;">
						<path id="&lt;Path&gt;" class="s28" d="m1881.9 1053c0 3.6-3.3 6.5-7.4 6.5-4.1 0-7.5-2.9-7.5-6.5 0-3.6 3.4-6.5 7.5-6.5 4.1 0 7.4 2.9 7.4 6.5z"/>
						<path id="&lt;Path&gt;" class="s29" d="m1910.3 1053c0 3.6-3.4 6.5-7.5 6.5-4.1 0-7.4-2.9-7.4-6.5 0-3.6 3.3-6.5 7.4-6.5 4.1 0 7.5 2.9 7.5 6.5z"/>
						<path id="&lt;Path&gt;" class="s13" d="m1938.6 1053c0 3.6-3.3 6.5-7.4 6.5-4.1 0-7.4-2.9-7.4-6.5 0-3.6 3.3-6.5 7.4-6.5 4.1 0 7.4 2.9 7.4 6.5z"/>
					</g>
				</g>
				<g id="&lt;Group&gt;">
					<g id="&lt;Group&gt;">
						<path id="&lt;Path&gt;" class="s30" d="m1813.9 1457.9h-576.6v-423.7h576.6z"/>
						<path id="&lt;Path&gt;" class="s31" d="m1813.9 1071.8h-576.6v-37.6h576.6z"/>
					</g>
					<path id="&lt;Path&gt;" class="s32" d="m1474.7 1110.3h-128c-0.4 0-0.7-0.3-0.7-0.7v-7.8c0-0.4 0.3-0.8 0.7-0.8h128c0.4 0 0.7 0.4 0.7 0.8v7.8c0 0.4-0.3 0.7-0.7 0.7z"/>
					<path id="&lt;Path&gt;" class="s22" d="m1278.8 1092.5h-31c-0.4 0-0.7-0.4-0.7-0.8v-7.8c0-0.4 0.3-0.7 0.7-0.7h31c0.4 0 0.8 0.3 0.8 0.7v7.8c0 0.4-0.4 0.8-0.8 0.8z"/>
					<path id="&lt;Path&gt;" class="s22" d="m1278.8 1110.3h-31c-0.4 0-0.7-0.3-0.7-0.7v-7.8c0-0.4 0.3-0.8 0.7-0.8h31c0.4 0 0.8 0.4 0.8 0.8v7.8c0 0.4-0.4 0.7-0.8 0.7z"/>
					<path id="&lt;Path&gt;" class="s22" d="m1278.8 1128.2h-31c-0.4 0-0.7-0.3-0.7-0.7v-7.8c0-0.4 0.3-0.8 0.7-0.8h31c0.4 0 0.8 0.4 0.8 0.8v7.8c0 0.4-0.4 0.7-0.8 0.7z"/>
					<path id="&lt;Path&gt;" class="s22" d="m1278.8 1146.1h-31c-0.4 0-0.7-0.3-0.7-0.7v-7.8c0-0.4 0.3-0.8 0.7-0.8h31c0.4 0 0.8 0.4 0.8 0.8v7.8c0 0.4-0.4 0.7-0.8 0.7z"/>
					<path id="&lt;Path&gt;" class="s22" d="m1278.8 1164h-31c-0.4 0-0.7-0.3-0.7-0.7v-7.8c0-0.4 0.3-0.8 0.7-0.8h31c0.4 0 0.8 0.4 0.8 0.8v7.8c0 0.4-0.4 0.7-0.8 0.7z"/>
					<path id="&lt;Path&gt;" class="s22" d="m1278.8 1181.9h-31c-0.4 0-0.7-0.3-0.7-0.7v-7.8c0-0.4 0.3-0.8 0.7-0.8h31c0.4 0 0.8 0.4 0.8 0.8v7.8c0 0.4-0.4 0.7-0.8 0.7z"/>
					<path id="&lt;Path&gt;" class="s22" d="m1278.8 1199.8h-31c-0.4 0-0.7-0.3-0.7-0.8v-7.7c0-0.5 0.3-0.8 0.7-0.8h31c0.4 0 0.8 0.3 0.8 0.8v7.7c0 0.5-0.4 0.8-0.8 0.8z"/>
					<path id="&lt;Path&gt;" class="s22" d="m1278.8 1217.7h-31c-0.4 0-0.7-0.3-0.7-0.8v-7.7c0-0.5 0.3-0.8 0.7-0.8h31c0.4 0 0.8 0.3 0.8 0.8v7.7c0 0.5-0.4 0.8-0.8 0.8z"/>
					<path id="&lt;Path&gt;" class="s22" d="m1278.8 1235.6h-31c-0.4 0-0.7-0.4-0.7-0.8v-7.8c0-0.4 0.3-0.7 0.7-0.7h31c0.4 0 0.8 0.3 0.8 0.7v7.8c0 0.4-0.4 0.8-0.8 0.8z"/>
					<path id="&lt;Path&gt;" class="s22" d="m1278.8 1253.5h-31c-0.4 0-0.7-0.4-0.7-0.8v-7.8c0-0.4 0.3-0.7 0.7-0.7h31c0.4 0 0.8 0.3 0.8 0.7v7.8c0 0.4-0.4 0.8-0.8 0.8z"/>
					<path id="&lt;Path&gt;" class="s22" d="m1278.8 1271.4h-31c-0.4 0-0.7-0.4-0.7-0.8v-7.8c0-0.4 0.3-0.7 0.7-0.7h31c0.4 0 0.8 0.3 0.8 0.7v7.8c0 0.4-0.4 0.8-0.8 0.8z"/>
					<path id="&lt;Path&gt;" class="s22" d="m1278.8 1289.3h-31c-0.4 0-0.7-0.4-0.7-0.8v-7.8c0-0.4 0.3-0.7 0.7-0.7h31c0.4 0 0.8 0.3 0.8 0.7v7.8c0 0.4-0.4 0.8-0.8 0.8z"/>
					<path id="&lt;Path&gt;" class="s22" d="m1278.8 1307.2h-31c-0.4 0-0.7-0.4-0.7-0.8v-7.8c0-0.4 0.3-0.7 0.7-0.7h31c0.4 0 0.8 0.3 0.8 0.7v7.8c0 0.4-0.4 0.8-0.8 0.8z"/>
					<path id="&lt;Path&gt;" class="s22" d="m1278.8 1325.1h-31c-0.4 0-0.7-0.4-0.7-0.8v-7.8c0-0.4 0.3-0.7 0.7-0.7h31c0.4 0 0.8 0.3 0.8 0.7v7.8c0 0.4-0.4 0.8-0.8 0.8z"/>
					<path id="&lt;Path&gt;" class="s22" d="m1278.8 1342.9h-31c-0.4 0-0.7-0.3-0.7-0.7v-7.8c0-0.4 0.3-0.8 0.7-0.8h31c0.4 0 0.8 0.4 0.8 0.8v7.8c0 0.4-0.4 0.7-0.8 0.7z"/>
					<path id="&lt;Path&gt;" class="s22" d="m1278.8 1360.8h-31c-0.4 0-0.7-0.3-0.7-0.7v-7.8c0-0.4 0.3-0.8 0.7-0.8h31c0.4 0 0.8 0.4 0.8 0.8v7.8c0 0.4-0.4 0.7-0.8 0.7z"/>
					<path id="&lt;Path&gt;" class="s22" d="m1278.8 1378.7h-31c-0.4 0-0.7-0.3-0.7-0.7v-7.8c0-0.4 0.3-0.8 0.7-0.8h31c0.4 0 0.8 0.4 0.8 0.8v7.8c0 0.4-0.4 0.7-0.8 0.7z"/>
					<path id="&lt;Path&gt;" class="s22" d="m1278.8 1396.6h-31c-0.4 0-0.7-0.3-0.7-0.7v-7.8c0-0.4 0.3-0.8 0.7-0.8h31c0.4 0 0.8 0.4 0.8 0.8v7.8c0 0.4-0.4 0.7-0.8 0.7z"/>
					<path id="&lt;Path&gt;" class="s22" d="m1278.8 1414.5h-31c-0.4 0-0.7-0.3-0.7-0.7v-7.8c0-0.4 0.3-0.8 0.7-0.8h31c0.4 0 0.8 0.4 0.8 0.8v7.8c0 0.4-0.4 0.7-0.8 0.7z"/>
					<path id="&lt;Path&gt;" class="s22" d="m1278.8 1432.4h-31c-0.4 0-0.7-0.3-0.7-0.8v-7.7c0-0.5 0.3-0.8 0.7-0.8h31c0.4 0 0.8 0.3 0.8 0.8v7.7c0 0.5-0.4 0.8-0.8 0.8z"/>
					<path id="&lt;Path&gt;" class="s22" d="m1278.8 1450.3h-31c-0.4 0-0.7-0.3-0.7-0.8v-7.7c0-0.5 0.3-0.8 0.7-0.8h31c0.4 0 0.8 0.3 0.8 0.8v7.7c0 0.5-0.4 0.8-0.8 0.8z"/>
					<path id="&lt;Path&gt;" class="s33" d="m1588.8 1132h-198.7c-0.4 0-0.8-0.3-0.8-0.7v-7.8c0-0.4 0.4-0.8 0.8-0.8h198.7c0.4 0 0.7 0.4 0.7 0.8v7.8c0 0.4-0.3 0.7-0.7 0.7z"/>
					<path id="&lt;Path&gt;" class="s32" d="m1619.5 1153.7h-209c-0.4 0-0.7-0.3-0.7-0.8v-7.7c0-0.5 0.3-0.8 0.7-0.8h209c0.4 0 0.7 0.3 0.7 0.8v7.7c0 0.5-0.3 0.8-0.7 0.8z"/>
					<path id="&lt;Path&gt;" class="s32" d="m1546.4 1175.4h-128c-0.4 0-0.7-0.4-0.7-0.8v-7.8c0-0.4 0.3-0.7 0.7-0.7h128c0.4 0 0.7 0.3 0.7 0.7v7.8c0 0.4-0.3 0.8-0.7 0.8z"/>
					<path id="&lt;Path&gt;" class="s34" d="m1568.8 1267.5h-198.7c-0.4 0-0.7-0.4-0.7-0.8v-7.8c0-0.4 0.3-0.7 0.7-0.7h198.7c0.4 0 0.8 0.3 0.8 0.7v7.8c0 0.4-0.4 0.8-0.8 0.8z"/>
					<path id="&lt;Path&gt;" class="s32" d="m1599.5 1289.1h-208.9c-0.4 0-0.8-0.3-0.8-0.7v-7.8c0-0.4 0.4-0.8 0.8-0.8h208.9c0.4 0 0.8 0.4 0.8 0.8v7.8c0 0.4-0.4 0.7-0.8 0.7z"/>
					<path id="&lt;Path&gt;" class="s35" d="m1526.4 1310.8h-127.9c-0.4 0-0.8-0.3-0.8-0.7v-7.8c0-0.4 0.4-0.8 0.8-0.8h127.9c0.4 0 0.8 0.4 0.8 0.8v7.8c0 0.4-0.4 0.7-0.8 0.7z"/>
					<path id="&lt;Path&gt;" class="s36" d="m1714.2 1267.5h-128c-0.4 0-0.7-0.4-0.7-0.8v-7.8c0-0.4 0.3-0.7 0.7-0.7h128c0.4 0 0.7 0.3 0.7 0.7v7.8c0 0.4-0.3 0.8-0.7 0.8z"/>
					<path id="&lt;Path&gt;" class="s32" d="m1495.1 1201.7h-127.9c-0.4 0-0.8-0.3-0.8-0.8v-7.7c0-0.5 0.4-0.8 0.8-0.8h127.9c0.4 0 0.8 0.3 0.8 0.8v7.7c0 0.5-0.4 0.8-0.8 0.8z"/>
					<path id="&lt;Path&gt;" class="s32" d="m1514.2 1244.9h-127.9c-0.4 0-0.8-0.4-0.8-0.8v-7.8c0-0.4 0.4-0.7 0.8-0.7h127.9c0.5 0 0.8 0.3 0.8 0.7v7.8c0 0.4-0.3 0.8-0.8 0.8z"/>
					<path id="&lt;Path&gt;" class="s34" d="m1731.6 1132h-127.9c-0.5 0-0.8-0.3-0.8-0.7v-7.8c0-0.4 0.3-0.8 0.8-0.8h127.9c0.4 0 0.8 0.4 0.8 0.8v7.8c0 0.4-0.4 0.7-0.8 0.7z"/>
					<path id="&lt;Path&gt;" class="s37" d="m1765.2 1153.7h-127.9c-0.4 0-0.8-0.3-0.8-0.8v-7.7c0-0.5 0.4-0.8 0.8-0.8h127.9c0.4 0 0.8 0.3 0.8 0.8v7.7c0 0.5-0.4 0.8-0.8 0.8z"/>
					<path id="&lt;Path&gt;" class="s32" d="m1491.3 1343.5h-127.9c-0.4 0-0.8-0.3-0.8-0.8v-7.7c0-0.5 0.4-0.8 0.8-0.8h127.9c0.4 0 0.8 0.3 0.8 0.8v7.7c0 0.5-0.4 0.8-0.8 0.8z"/>
					<path id="&lt;Path&gt;" class="s32" d="m1605.4 1365.2h-198.7c-0.4 0-0.7-0.4-0.7-0.8v-7.8c0-0.4 0.3-0.7 0.7-0.7h198.7c0.5 0 0.8 0.3 0.8 0.7v7.8c0 0.4-0.3 0.8-0.8 0.8z"/>
					<path id="&lt;Path&gt;" class="s34" d="m1636.1 1386.8h-208.9c-0.4 0-0.8-0.3-0.8-0.7v-7.8c0-0.4 0.4-0.8 0.8-0.8h208.9c0.4 0 0.8 0.4 0.8 0.8v7.8c0 0.4-0.4 0.7-0.8 0.7z"/>
					<path id="&lt;Path&gt;" class="s34" d="m1758.9 1289.1h-145.5c-0.4 0-0.7-0.3-0.7-0.7v-7.8c0-0.4 0.3-0.8 0.7-0.8h145.5c0.4 0 0.7 0.4 0.7 0.8v7.8c0 0.4-0.3 0.7-0.7 0.7z"/>
					<path id="&lt;Path&gt;" class="s32" d="m1563 1408.5h-127.9c-0.4 0-0.8-0.3-0.8-0.7v-7.8c0-0.4 0.4-0.8 0.8-0.8h127.9c0.4 0 0.8 0.4 0.8 0.8v7.8c0 0.4-0.4 0.7-0.8 0.7z"/>
					<path id="&lt;Path&gt;" class="s32" d="m1748.2 1365.2h-127.9c-0.4 0-0.8-0.4-0.8-0.8v-7.8c0-0.4 0.4-0.7 0.8-0.7h127.9c0.5 0 0.8 0.3 0.8 0.7v7.8c0 0.4-0.3 0.8-0.8 0.8z"/>
					<path id="&lt;Path&gt;" class="s38" d="m1781.9 1386.8h-128c-0.4 0-0.7-0.3-0.7-0.7v-7.8c0-0.4 0.3-0.8 0.7-0.8h128c0.4 0 0.7 0.4 0.7 0.8v7.8c0 0.4-0.3 0.7-0.7 0.7z"/>
					<path id="&lt;Path&gt;" class="s32" d="m1481.6 1223h-127.9c-0.4 0-0.8-0.4-0.8-0.8v-7.8c0-0.4 0.4-0.8 0.8-0.8h127.9c0.5 0 0.8 0.4 0.8 0.8v7.8c0 0.4-0.3 0.8-0.8 0.8z"/>
					<path id="&lt;Path&gt;" class="s34" d="m1628.3 1223h-127.9c-0.4 0-0.8-0.4-0.8-0.8v-7.8c0-0.4 0.4-0.8 0.8-0.8h127.9c0.5 0 0.8 0.4 0.8 0.8v7.8c0 0.4-0.3 0.8-0.8 0.8z"/>
					<path id="&lt;Path&gt;" class="s22" d="m1301 1457.9h-4.7v-423.7h4.7z"/>
				</g>
			</g>
			<g id="&lt;Group&gt;">
				<path id="&lt;Path&gt;" class="s39" d="m799.8 1256.6h211.7c1.6 0 2.8-1.3 2.8-2.8v-222.7c0-1.5-1.2-2.7-2.8-2.7h-211.7c-1.5 0-2.8 1.2-2.8 2.7v222.7c0 1.5 1.3 2.8 2.8 2.8z"/>
				<g id="&lt;Group&gt;">
					<path id="&lt;Path&gt;" class="s22" d="m902.3 1070.7h87.9c0.4 0 0.8-0.4 0.8-0.8v-5.2c0-0.5-0.4-0.8-0.8-0.8h-87.9c-0.4 0-0.7 0.3-0.7 0.8v5.2c0 0.4 0.3 0.8 0.7 0.8z"/>
					<path id="&lt;Path&gt;" class="s22" d="m853.3 1085.6h136.9c0.4 0 0.8-0.3 0.8-0.8v-5.2c0-0.4-0.4-0.8-0.8-0.8h-136.9c-0.4 0-0.8 0.4-0.8 0.8v5.2c0 0.5 0.4 0.8 0.8 0.8z"/>
					<path id="&lt;Path&gt;" class="s22" d="m873.8 1100.5h116.4c0.4 0 0.8-0.3 0.8-0.7v-5.3c0-0.4-0.4-0.8-0.8-0.8h-116.4c-0.4 0-0.8 0.4-0.8 0.8v5.3c0 0.4 0.4 0.7 0.8 0.7z"/>
					<path id="&lt;Path&gt;" class="s22" d="m880.3 1115.4h109.9c0.4 0 0.8-0.3 0.8-0.7v-5.3c0-0.4-0.4-0.7-0.8-0.7h-109.9c-0.5 0-0.8 0.3-0.8 0.7v5.3c0 0.4 0.3 0.7 0.8 0.7z"/>
					<path id="&lt;Path&gt;" class="s22" d="m920.6 1130.4h69.6c0.4 0 0.8-0.4 0.8-0.8v-5.3c0-0.4-0.4-0.7-0.8-0.7h-69.6c-0.4 0-0.8 0.3-0.8 0.7v5.3c0 0.4 0.4 0.8 0.8 0.8z"/>
				</g>
				<g id="&lt;Group&gt;">
					<path id="&lt;Path&gt;" class="s22" d="m875.6 1158.8h87.9c0.4 0 0.7-0.3 0.7-0.8v-5.2c0-0.5-0.3-0.8-0.7-0.8h-87.9c-0.4 0-0.8 0.3-0.8 0.8v5.2c0 0.5 0.4 0.8 0.8 0.8z"/>
					<path id="&lt;Path&gt;" class="s22" d="m826.6 1173.7h136.9c0.4 0 0.7-0.3 0.7-0.7v-5.3c0-0.4-0.3-0.8-0.7-0.8h-136.9c-0.5 0-0.8 0.4-0.8 0.8v5.3c0 0.4 0.3 0.7 0.8 0.7z"/>
					<path id="&lt;Path&gt;" class="s22" d="m847 1188.6h116.5c0.4 0 0.7-0.3 0.7-0.7v-5.3c0-0.4-0.3-0.8-0.7-0.8h-116.5c-0.4 0-0.7 0.4-0.7 0.8v5.3c0 0.4 0.3 0.7 0.7 0.7z"/>
					<path id="&lt;Path&gt;" class="s22" d="m853.5 1203.6h110c0.4 0 0.7-0.4 0.7-0.8v-5.3c0-0.4-0.3-0.7-0.7-0.7h-110c-0.4 0-0.8 0.3-0.8 0.7v5.3c0 0.4 0.4 0.8 0.8 0.8z"/>
					<path id="&lt;Path&gt;" class="s22" d="m893.8 1218.5h69.7c0.4 0 0.7-0.4 0.7-0.8v-5.3c0-0.4-0.3-0.7-0.7-0.7h-69.7c-0.4 0-0.7 0.3-0.7 0.7v5.3c0 0.4 0.3 0.8 0.7 0.8z"/>
				</g>
				<path id="&lt;Path&gt;" class="s40" d="m919 1195.1l3.4-9.7c2-5.9 7.6-9.8 13.9-9.8h84.7c8.1 0 14.7 6.5 14.7 14.7v148.8c0 8.1-6.6 14.7-14.7 14.7h-235.9c-8.1 0-14.7-6.6-14.7-14.7v-119.4c0-8.2 6.6-14.7 14.7-14.7h120.1c6.2 0 11.8-4 13.8-9.9z"/>
				<g id="&lt;Group&gt;">
					<path id="&lt;Path&gt;" class="s39" d="m750.2 1353.8h-287.5c-1.6 0-2.8-1.2-2.8-2.8v-302.2c0-1.5 1.2-2.8 2.8-2.8h287.5c1.5 0 2.8 1.3 2.8 2.8v302.2c0 1.6-1.3 2.8-2.8 2.8z"/>
					<g id="&lt;Group&gt;">
						<path id="&lt;Path&gt;" class="s22" d="m611.2 1103.1h-119.1c-0.4 0-0.7-0.3-0.7-0.8v-7.6c0-0.4 0.3-0.8 0.7-0.8h119.1c0.4 0 0.8 0.4 0.8 0.8v7.6c0 0.5-0.4 0.8-0.8 0.8z"/>
						<path id="&lt;Path&gt;" class="s22" d="m677.4 1123.2h-185.3c-0.4 0-0.7-0.3-0.7-0.7v-7.7c0-0.4 0.3-0.7 0.7-0.7h185.3c0.4 0 0.7 0.3 0.7 0.7v7.7c0 0.4-0.3 0.7-0.7 0.7z"/>
						<path id="&lt;Path&gt;" class="s22" d="m649.7 1143.3h-157.6c-0.4 0-0.7-0.3-0.7-0.7v-7.7c0-0.4 0.3-0.7 0.7-0.7h157.6c0.4 0 0.8 0.3 0.8 0.7v7.7c0 0.4-0.4 0.7-0.8 0.7z"/>
						<path id="&lt;Path&gt;" class="s22" d="m641 1163.5h-148.9c-0.4 0-0.7-0.4-0.7-0.8v-7.6c0-0.5 0.3-0.8 0.7-0.8h148.9c0.4 0 0.8 0.3 0.8 0.8v7.6c0 0.4-0.4 0.8-0.8 0.8z"/>
						<path id="&lt;Path&gt;" class="s22" d="m586.6 1183.6h-94.5c-0.4 0-0.7-0.3-0.7-0.8v-7.6c0-0.4 0.3-0.8 0.7-0.8h94.5c0.4 0 0.8 0.4 0.8 0.8v7.6c0 0.5-0.4 0.8-0.8 0.8z"/>
					</g>
					<g id="&lt;Group&gt;">
						<path id="&lt;Path&gt;" class="s22" d="m647.3 1221.9h-119.1c-0.4 0-0.7-0.3-0.7-0.7v-7.7c0-0.4 0.3-0.7 0.7-0.7h119.1c0.4 0 0.8 0.3 0.8 0.7v7.7c0 0.4-0.4 0.7-0.8 0.7z"/>
						<path id="&lt;Path&gt;" class="s22" d="m713.4 1242.1h-185.2c-0.4 0-0.7-0.4-0.7-0.8v-7.6c0-0.5 0.3-0.8 0.7-0.8h185.2c0.5 0 0.8 0.3 0.8 0.8v7.6c0 0.4-0.3 0.8-0.8 0.8z"/>
						<path id="&lt;Path&gt;" class="s22" d="m685.8 1262.2h-157.6c-0.4 0-0.7-0.3-0.7-0.8v-7.6c0-0.4 0.3-0.8 0.7-0.8h157.6c0.4 0 0.8 0.4 0.8 0.8v7.6c0 0.5-0.4 0.8-0.8 0.8z"/>
						<path id="&lt;Path&gt;" class="s22" d="m677.1 1282.3h-148.9c-0.4 0-0.7-0.3-0.7-0.7v-7.7c0-0.4 0.3-0.7 0.7-0.7h148.9c0.4 0 0.7 0.3 0.7 0.7v7.7c0 0.4-0.3 0.7-0.7 0.7z"/>
						<path id="&lt;Path&gt;" class="s22" d="m622.7 1302.4h-94.5c-0.4 0-0.7-0.3-0.7-0.7v-7.7c0-0.4 0.3-0.7 0.7-0.7h94.5c0.4 0 0.7 0.3 0.7 0.7v7.7c0 0.4-0.3 0.7-0.7 0.7z"/>
					</g>
				</g>
				<g id="&lt;Group&gt;">
					<path id="&lt;Path&gt;" class="s39" d="m2682.7 1004.4h-287.6c-1.5 0-2.7-1.2-2.7-2.7v-302.3c0-1.5 1.2-2.8 2.7-2.8h287.6c1.5 0 2.7 1.3 2.7 2.8v302.3c0 1.5-1.2 2.7-2.7 2.7z"/>
					<g id="&lt;Group&gt;">
						<path id="&lt;Path&gt;" class="s22" d="m2543.7 753.7h-119.1c-0.4 0-0.8-0.3-0.8-0.7v-7.7c0-0.4 0.4-0.7 0.8-0.7h119.1c0.4 0 0.7 0.3 0.7 0.7v7.7c0 0.4-0.3 0.7-0.7 0.7z"/>
						<path id="&lt;Path&gt;" class="s22" d="m2609.8 773.8h-185.2c-0.4 0-0.8-0.3-0.8-0.7v-7.7c0-0.4 0.4-0.7 0.8-0.7h185.2c0.4 0 0.8 0.3 0.8 0.7v7.7c0 0.4-0.4 0.7-0.8 0.7z"/>
						<path id="&lt;Path&gt;" class="s22" d="m2582.2 794h-157.6c-0.4 0-0.8-0.4-0.8-0.8v-7.6c0-0.5 0.4-0.8 0.8-0.8h157.6c0.4 0 0.7 0.3 0.7 0.8v7.6c0 0.4-0.3 0.8-0.7 0.8z"/>
						<path id="&lt;Path&gt;" class="s22" d="m2573.5 814.1h-148.9c-0.4 0-0.8-0.4-0.8-0.8v-7.6c0-0.4 0.4-0.8 0.8-0.8h148.9c0.4 0 0.7 0.4 0.7 0.8v7.6c0 0.4-0.3 0.8-0.7 0.8z"/>
						<path id="&lt;Path&gt;" class="s22" d="m2519 834.2h-94.4c-0.4 0-0.8-0.3-0.8-0.7v-7.7c0-0.4 0.4-0.8 0.8-0.8h94.4c0.5 0 0.8 0.4 0.8 0.8v7.7c0 0.4-0.3 0.7-0.8 0.7z"/>
					</g>
					<g id="&lt;Group&gt;">
						<path id="&lt;Path&gt;" class="s22" d="m2579.8 872.6h-119.1c-0.4 0-0.8-0.4-0.8-0.8v-7.6c0-0.5 0.4-0.8 0.8-0.8h119.1c0.4 0 0.7 0.3 0.7 0.8v7.6c0 0.4-0.3 0.8-0.7 0.8z"/>
						<path id="&lt;Path&gt;" class="s22" d="m2645.9 892.7h-185.2c-0.4 0-0.8-0.4-0.8-0.8v-7.6c0-0.4 0.4-0.8 0.8-0.8h185.2c0.4 0 0.8 0.4 0.8 0.8v7.6c0 0.4-0.4 0.8-0.8 0.8z"/>
						<path id="&lt;Path&gt;" class="s22" d="m2618.3 912.8h-157.6c-0.4 0-0.8-0.3-0.8-0.7v-7.7c0-0.4 0.4-0.8 0.8-0.8h157.6c0.4 0 0.7 0.4 0.7 0.8v7.7c0 0.4-0.3 0.7-0.7 0.7z"/>
						<path id="&lt;Path&gt;" class="s22" d="m2609.5 932.9h-148.8c-0.4 0-0.8-0.3-0.8-0.7v-7.7c0-0.4 0.4-0.7 0.8-0.7h148.8c0.5 0 0.8 0.3 0.8 0.7v7.7c0 0.4-0.3 0.7-0.8 0.7z"/>
						<path id="&lt;Path&gt;" class="s22" d="m2555.1 953.1h-94.4c-0.4 0-0.8-0.4-0.8-0.8v-7.6c0-0.5 0.4-0.8 0.8-0.8h94.4c0.5 0 0.8 0.3 0.8 0.8v7.6c0 0.4-0.3 0.8-0.8 0.8z"/>
					</g>
				</g>
				<g id="&lt;Group&gt;">
					<path id="&lt;Path&gt;" class="s39" d="m750.2 1017.1h-287.5c-1.6 0-2.8-1.2-2.8-2.8v-302.2c0-1.5 1.2-2.8 2.8-2.8h287.5c1.5 0 2.8 1.3 2.8 2.8v302.2c0 1.6-1.3 2.8-2.8 2.8z"/>
					<g id="&lt;Group&gt;">
						<path id="&lt;Path&gt;" class="s32" d="m555 767.9h-72.3c-0.4 0-0.7-0.3-0.7-0.8v-4.6c0-0.4 0.3-0.7 0.7-0.7h72.3c0.4 0 0.8 0.3 0.8 0.7v4.6c0 0.5-0.4 0.8-0.8 0.8z"/>
						<path id="&lt;Path&gt;" class="s41" d="m620.1 782.2h-112.7c-0.4 0-0.7-0.3-0.7-0.8v-4.6c0-0.4 0.3-0.7 0.7-0.7h112.7c0.4 0 0.7 0.3 0.7 0.7v4.6c0 0.5-0.3 0.8-0.7 0.8z"/>
						<path id="&lt;Path&gt;" class="s32" d="m637.6 796.5h-118.5c-0.4 0-0.8-0.3-0.8-0.8v-4.6c0-0.4 0.4-0.7 0.8-0.7h118.5c0.4 0 0.7 0.3 0.7 0.7v4.6c0 0.5-0.3 0.8-0.7 0.8z"/>
						<path id="&lt;Path&gt;" class="s32" d="m595.9 810.8h-72.3c-0.4 0-0.8-0.3-0.8-0.8v-4.6c0-0.4 0.4-0.7 0.8-0.7h72.3c0.4 0 0.8 0.3 0.8 0.7v4.6c0 0.5-0.4 0.8-0.8 0.8z"/>
						<path id="&lt;Path&gt;" class="s34" d="m608.7 871.6h-112.6c-0.5 0-0.8-0.4-0.8-0.8v-4.6c0-0.4 0.3-0.8 0.8-0.8h112.6c0.4 0 0.8 0.4 0.8 0.8v4.6c0 0.4-0.4 0.8-0.8 0.8z"/>
						<path id="&lt;Path&gt;" class="s32" d="m626.2 885.9h-118.5c-0.4 0-0.7-0.4-0.7-0.8v-4.6c0-0.4 0.3-0.7 0.7-0.7h118.5c0.4 0 0.8 0.3 0.8 0.7v4.6c0 0.4-0.4 0.8-0.8 0.8z"/>
						<path id="&lt;Path&gt;" class="s42" d="m584.5 900.2h-72.3c-0.4 0-0.7-0.3-0.7-0.8v-4.6c0-0.4 0.3-0.7 0.7-0.7h72.3c0.4 0 0.8 0.3 0.8 0.7v4.6c0 0.5-0.4 0.8-0.8 0.8z"/>
						<path id="&lt;Path&gt;" class="s43" d="m691.6 871.6h-72.3c-0.5 0-0.8-0.4-0.8-0.8v-4.6c0-0.4 0.3-0.8 0.8-0.8h72.3c0.4 0 0.7 0.4 0.7 0.8v4.6c0 0.4-0.3 0.8-0.7 0.8z"/>
						<path id="&lt;Path&gt;" class="s32" d="m566.7 828.2h-72.3c-0.4 0-0.8-0.4-0.8-0.8v-4.6c0-0.4 0.4-0.8 0.8-0.8h72.3c0.4 0 0.7 0.4 0.7 0.8v4.6c0 0.4-0.3 0.8-0.7 0.8z"/>
						<path id="&lt;Path&gt;" class="s32" d="m577.6 856.7h-72.3c-0.4 0-0.8-0.4-0.8-0.8v-4.6c0-0.4 0.4-0.8 0.8-0.8h72.3c0.4 0 0.7 0.4 0.7 0.8v4.6c0 0.4-0.3 0.8-0.7 0.8z"/>
						<path id="&lt;Path&gt;" class="s34" d="m701.5 782.2h-72.3c-0.4 0-0.8-0.3-0.8-0.8v-4.6c0-0.4 0.4-0.7 0.8-0.7h72.3c0.4 0 0.8 0.3 0.8 0.7v4.6c0 0.5-0.4 0.8-0.8 0.8z"/>
						<path id="&lt;Path&gt;" class="s44" d="m720.7 796.5h-72.3c-0.4 0-0.8-0.3-0.8-0.8v-4.6c0-0.4 0.4-0.7 0.8-0.7h72.3c0.4 0 0.7 0.3 0.7 0.7v4.6c0 0.5-0.3 0.8-0.7 0.8z"/>
						<path id="&lt;Path&gt;" class="s32" d="m564.5 921.8h-72.3c-0.4 0-0.8-0.4-0.8-0.8v-4.6c0-0.4 0.4-0.8 0.8-0.8h72.3c0.4 0 0.8 0.4 0.8 0.8v4.6c0 0.4-0.4 0.8-0.8 0.8z"/>
						<path id="&lt;Path&gt;" class="s32" d="m629.6 936.1h-112.7c-0.4 0-0.7-0.4-0.7-0.8v-4.6c0-0.4 0.3-0.8 0.7-0.8h112.7c0.4 0 0.7 0.4 0.7 0.8v4.6c0 0.4-0.3 0.8-0.7 0.8z"/>
						<path id="&lt;Path&gt;" class="s34" d="m647.1 950.4h-118.5c-0.4 0-0.8-0.4-0.8-0.8v-4.6c0-0.4 0.4-0.8 0.8-0.8h118.5c0.4 0 0.7 0.4 0.7 0.8v4.6c0 0.4-0.3 0.8-0.7 0.8z"/>
						<path id="&lt;Path&gt;" class="s34" d="m717.1 885.9h-82.3c-0.4 0-0.8-0.4-0.8-0.8v-4.6c0-0.4 0.4-0.7 0.8-0.7h82.3c0.4 0 0.7 0.3 0.7 0.7v4.6c0 0.4-0.3 0.8-0.7 0.8z"/>
						<path id="&lt;Path&gt;" class="s32" d="m605.4 964.7h-72.3c-0.4 0-0.8-0.4-0.8-0.8v-4.6c0-0.4 0.4-0.8 0.8-0.8h72.3c0.4 0 0.7 0.4 0.7 0.8v4.6c0 0.4-0.3 0.8-0.7 0.8z"/>
						<path id="&lt;Path&gt;" class="s32" d="m711 936.1h-72.3c-0.4 0-0.8-0.4-0.8-0.8v-4.6c0-0.4 0.4-0.8 0.8-0.8h72.3c0.4 0 0.8 0.4 0.8 0.8v4.6c0 0.4-0.4 0.8-0.8 0.8z"/>
						<path id="&lt;Path&gt;" class="s45" d="m730.2 950.4h-72.3c-0.5 0-0.8-0.4-0.8-0.8v-4.6c0-0.4 0.3-0.8 0.8-0.8h72.3c0.4 0 0.7 0.4 0.7 0.8v4.6c0 0.4-0.3 0.8-0.7 0.8z"/>
						<path id="&lt;Path&gt;" class="s32" d="m559 842.2h-72.3c-0.4 0-0.8-0.3-0.8-0.8v-4.6c0-0.4 0.4-0.7 0.8-0.7h72.3c0.4 0 0.7 0.3 0.7 0.7v4.6c0 0.5-0.3 0.8-0.7 0.8z"/>
						<path id="&lt;Path&gt;" class="s34" d="m642.6 842.2h-72.3c-0.4 0-0.7-0.3-0.7-0.8v-4.6c0-0.4 0.3-0.7 0.7-0.7h72.3c0.4 0 0.8 0.3 0.8 0.7v4.6c0 0.5-0.4 0.8-0.8 0.8z"/>
					</g>
				</g>
			</g>
			<g id="&lt;Group&gt;">
				<g id="&lt;Group&gt;">
					<path id="&lt;Compound Path&gt;" fill-rule="evenodd" class="s46" d="m1823.7 982.3c52.7-70.9 153-85.6 223.8-32.9 70.9 52.7 85.6 153 32.9 223.9-52.8 70.9-153 85.6-223.9 32.9-70.8-52.8-85.5-153-32.8-223.9zm240.7 179.1c46.2-62.1 33.3-149.8-28.8-196-62-46.2-149.7-33.3-195.9 28.8-46.2 62.1-33.3 149.8 28.7 196 62.1 46.2 149.8 33.3 196-28.8z"/>
					<path id="&lt;Path&gt;" class="s47" d="m2071.1 1215.5l47-63.2c0.4-0.5 0.3-1.1-0.2-1.5l-18.4-13.7-48.2 64.9 18.4 13.7c0.4 0.4 1.1 0.3 1.4-0.2z"/>
					<path id="&lt;Path&gt;" class="s48" d="m2177.2 1270.3l22.6-30.3-93.9-71.3-22.5 30.3z"/>
					<path id="&lt;Path&gt;" class="s49" d="m2311.4 1377.9l32.2-43.2c1.9-2.6 1.4-6.3-1.2-8.3l-137.7-101.7c-2.6-1.9-6.3-1.4-8.2 1.2l-32.2 43.3c-1.9 2.6-1.4 6.3 1.2 8.2l137.7 101.7c2.6 2 6.3 1.4 8.2-1.2z"/>
				</g>
				<path id="&lt;Path&gt;" class="s50" d="m2064.4 1161.4c46.2-62.1 33.3-149.8-28.8-196-62-46.2-149.7-33.3-195.9 28.8-46.2 62.1-33.3 149.8 28.7 196 62.1 46.2 149.8 33.3 196-28.8z"/>
			</g>
			<g id="&lt;Group&gt;">
				<path id="&lt;Path&gt;" class="s51" d="m1732.2 2142.8c0 0 7.6 16.4 29.3 20 21.6 3.6 65.4 2.2 70.4 17.1 4.9 14.9 0 26.8 0 26.8h-165.6c0 0-20.8-36.1 3.2-52 23.9-15.8 62.7-11.9 62.7-11.9z"/>
				<path id="&lt;Path&gt;" class="s52" d="m1734.5 2140.6c0 0-12.8 14.5-35.2 16.7-22.4 2.1-34.1-4.3-34.1-4.3 0 0-9.6-39.5-25.6-94.2-16-54.8-19.2-191.5-29.9-198.9-10.6-7.3-286.8 74.5-379.5 58.5-92.8-16-80.6-117-80.6-117l147.1-49.1c0 0 342.9-26.8 373.8-16.2 7.8 2.7 14.3 5.7 19.8 9.3q0 0 0.1 0c16.3 10.9 23.3 28.1 24.9 63.2 2.1 46.9 19.2 332 19.2 332z"/>
				<path id="&lt;Path&gt;" class="s53" d="m1734.5 2140.6c0 0-12.8 14.5-35.2 16.7-22.4 2.1-34.1-4.3-34.1-4.3 0 0-9.6-39.5-25.6-94.2-16-54.8-19.2-191.5-29.9-198.9 3.2-85.7 80.6-114.5 80.6-114.5q0 0 0.1 0c16.3 10.9 23.3 28.1 24.9 63.2 2.1 46.9 19.2 332 19.2 332z"/>
				<path id="&lt;Path&gt;" class="s54" d="m1352 1698.8c0 0 227.3-83.9 283-65.3 55.7 18.6 206.8 376.2 206.8 376.2 0 0-15.6 14.5-38.9 23.6-23.3 9.1-28.5 10.4-28.5 10.4 0 0-175.6-296-192.4-301.1-16.8-5.2-285.3 9.7-285.3 9.7 0 0 58-19.3 55.3-53.5z"/>
				<path id="&lt;Path&gt;" class="s55" d="m1841.8 2009.7c0 0 41.5 59.2 76.2 70.1 34.7 10.8 39.7 26.6 36.5 39.2-3.1 12.6-3.1 12.6-3.1 12.6 0 0-164.2-23.9-173.2-39.2-9-15.3-3.8-48.7-3.8-48.7 0 0 64.6-23.8 67.4-34z"/>
				<g id="&lt;Group&gt;">
					<path id="&lt;Path&gt;" class="s56" d="m1253.4 1143.8c0 0 15.9 45.5 14.2 52.6-1.6 7-8.2 12.1-7 14.8 1.2 2.7 11.6 25 9.3 35.1-2.3 10.1 1.6 50-8.1 57.6-9.7 7.5-33.2 7.1-33.2 7.1v20.6h-81.1c0 0 4.3-57.8 1.5-66.3-2.8-8.5 15.9-102.3 26.5-111.5 10.6-9.2 77.9-10 77.9-10z"/>
					<path id="&lt;Path&gt;" class="s57" d="m1258.4 1139.1c-1 8.2-2.2 14.8-3.7 20.1-5.4 20.7-13.3 23.2-13.9 33.1-0.9 12.4 6.7 40.7 1.2 43.1-5.4 2.5-7.5-31-21.4-31.1-13.9-0.2-18 12.4-7.3 33.5 10.6 21.1-1.1 33.5-31.8 45.8-30.7 12.3-33.6 1.8-46.6-4.5-13.1-6.3-52.2-20.9-63.1-55.6-10.9-34.8 5-55.5 5-55.5 0 0 0 0 0-0.1-1-2.1-14.3-31.9 19-47.7 34.4-16.3 136.1-41.6 136.1-41.6 0 0 31.1 20.6 26.5 60.5z"/>
					<path id="&lt;Path&gt;" class="s58" d="m1566.9 1415.5c0 0-87.4 187.3-123.5 200.2-36.1 13-87.3-40.4-87.3-40.4l45.4 168.3c0 0-4.1 17.1-24.9 33.8-19.4 15.5-53.1 30.4-111.5 31.2-121.3 1.4-135.8-17.4-135.8-17.4l-49.8-228.1c0 0-51.3-6.6-57.8-38.3-6.5-31.8 18.1-159.3 28.9-171 10.9-11.7 49.9-12.1 56.4-16.6 6.4-4.5 15.8-19.6 15.8-19.6 0.7 0.8 11 0.9 25.6 0.7 23.6-0.2 58.2-0.7 80.2 1.2 10.1 0.9 17.5 2.3 19.9 4.5 10.8 10.1 14.4 27.5 14.4 27.5 0 0 65 11.5 79.5 27.4 14.4 15.9 90.1 119.9 101 121.7 10.8 1.9 65.7-139.7 65.7-139.7 0 0 6.3-1.6 14.8-0.3 6.6 1 14.5 3.7 21.6 10.4 7.2 6.6 12.1 16 15.5 24.4 4.3 10.8 5.9 20.1 5.9 20.1z"/>
					<path id="&lt;Path&gt;" class="s59" d="m1258.4 1139.1c-1 8.2-2.2 14.8-3.7 20.1-12.8 9.2-33.2 15.1-63.7 22.8-61.5 15.5-114.2-14-114.2-14 0 0 0 0 0-0.1-1-2.1-14.3-31.9 19-47.7 34.4-16.3 136.1-41.6 136.1-41.6 0 0 31.1 20.6 26.5 60.5z"/>
					<path id="&lt;Path&gt;" class="s60" d="m1523.7 1360.5c0 0-8.3-40.2-3-51.5 5.4-11.3 14.7-28.6 14.7-28.6 0 0 13.1-4.5 8.6 13.7-4.6 18.2-0.3 13.6 1.5 12.9 1.8-0.6 29.8-72.1 39.8-69.3 9.9 2.8-13.4 54.1-12.7 61.4 0.7 7.3 28.8 46.5 20.6 61.4-8.2 15-26.3 48.9-26.3 48.9 0 0-11.7-39.3-43.2-48.9z"/>
				</g>
				<g id="&lt;Group&gt;">
					<path id="&lt;Path&gt;" class="s61" d="m1381.5 2219.3h-20.6l-12.4-26.9-132.8-10.3-13.1 32.4v40c0 0-7.9 15-12.8 16.7-5 1.7-14.6-56.7-14.1-59.4 0.6-2.7 6.7-29.7 6.7-29.7l-142.7 15.1c0 0-11.9 21.4-18.4 24.5-6.5 3.1-28.2-0.6-28.2-0.6l29.8-46.5 159.5-27 195.2 28z"/>
					<path id="&lt;Path&gt;" class="s62" d="m998.6 2175.8c1.1-3.2 3.8-5.6 7.2-6.2l147.6-23.9 43.5-5.1q1-0.1 2 0l43.5 5.1 147.6 23.9c3.4 0.6 6.1 3 7.2 6.2l11 34.1c1.9 5.8-2.4 11.8-8.6 11.8h-12.2c-3.8 0-7.3-2.4-8.5-6l-9.5-26.7c-1.1-3.3-4-5.6-7.4-6l-148-17.8c-4.3-0.5-8.4 2.1-9.7 6.3l-10.1 32.6q-0.4 1.3-0.4 2.6v57.2c0 4.9-4 9-9 9h-7.9c-5 0-9-4.1-9-9v-58.6q0-1.4 0.4-2.7l7.6-23.8c2-6.3-3.2-12.5-9.7-11.7l-132.4 15.9c-3.4 0.4-6.3 2.7-7.4 6l-9.5 26.7c-1.2 3.6-4.6 6-8.5 6h-12.2c-6.1 0-10.5-6-8.6-11.8z"/>
					<path id="&lt;Path&gt;" class="s63" d="m767.5 1468.8l121.8 428.4c2.9 25.3 24.4 44.3 49.8 44.3h522c13.8 0 25-11.2 25-24.9v-12.3c0-12.1-9.9-22-22.1-22h-152.8c-16.1 0-29.5-11.8-31.7-27.6l-120.9-373.3c-4.6-34.1-33.8-59.7-68.3-59.7h-281c-21.2 0-38.2 15.4-41.5 34.9-0.7 4-0.8 8.1-0.3 12.2z"/>
					<path id="&lt;Path&gt;" class="s64" d="m767.5 1468.8l121.8 428.4c2.9 25.3 24.4 44.3 49.8 44.3h511.8v-24.6h-174.8c-16.1 0-29.6-11.8-31.7-27.7l-120.9-373.2c-4.6-34.3-33.8-59.9-68.3-59.9h-281q-3.2 0-6.4 0.5c-0.7 4-0.8 8.1-0.3 12.2z"/>
					<path id="&lt;Path&gt;" class="s65" d="m1126.4 1985.3h154.4c0.5 0 0.9-0.4 0.9-0.9v-42.9h-156.2v42.9c0 0.5 0.4 0.9 0.9 0.9z"/>
					<path id="&lt;Path&gt;" class="s66" d="m1182.4 2132.3h40.3v-147h-40.3z"/>
					<path id="&lt;Path&gt;" class="s67" d="m1153.4 2147.6h89v-46.5c0-0.6-0.5-1.1-1.2-1.1h-86.6c-0.7 0-1.2 0.5-1.2 1.1z"/>
				</g>
				<path id="&lt;Path&gt;" class="s68" d="m1401.5 1743.6c0 0-4.1 17.1-24.9 33.8-15.9-63.2-45.3-176.5-63.1-220.6-25.3-62.6-17-118.9-17-118.9 0 0 0 0 7.2 32.8 7.3 32.7 52.4 104.6 52.4 104.6z"/>
			</g>
			<path id="&lt;Path&gt;" class="s69" d="m1258.8 535.7v97.9c0 32.7-26.5 59.3-59.2 59.3h-242c-33.9 0-61.4 27.5-61.4 61.4v71.1c0 30-24.4 54.4-54.4 54.4h-88.8"/>
			<path id="&lt;Path&gt;" class="s69" d="m1515 555.5v55.5c0 36 29.2 65.1 65.1 65.1h659.8c39.1 0 70.7 31.6 70.7 70.7v78.9c0 25.9 21 46.9 46.9 46.9h33.4"/>
			<path id="&lt;Path&gt;" class="s69" d="m1402.6 555.5v338.1"/>
			<path id="&lt;Path&gt;" class="s69" d="m1462.1 555.5v338.1"/>
			<g id="&lt;Group&gt;">
				<g id="&lt;Group&gt;">
					<path id="&lt;Path&gt;" class="s70" d="m1174.8 580.2c-84.4 0-153.1-68.6-153.1-153 0-82.1 65-149.3 146.2-152.9 4.9-80 71.5-143.6 152.7-143.6 62.1 0 117 37.1 140.8 92.8 9-2 18.3-3 27.7-3 34.2 0 66.5 13.2 90.8 37.3 18.1 17.8 30.3 39.9 35.6 64.1q6.4-0.6 12.9-0.6c71.4 0 129.5 58.1 129.5 129.4 0 30.9-11 60.8-31.1 84.2-15.6 18.3-34.8 34.7-57.3 42l-21.1 3.3z"/>
					<path id="&lt;Path&gt;" class="s71" d="m1735.7 450.7c0-59.2-48-107.3-107.3-107.3-11.1 0-21.9 1.8-32.1 4.9-0.8-58.5-48.5-105.6-107.2-105.6-14.8 0-28.9 3-41.7 8.4-14.5-56.5-65.8-98.3-126.8-98.3-72.2 0-130.8 58.6-130.8 130.9q0 6.9 0.7 13.6-7.7-0.9-15.8-0.9c-72.2 0-130.8 58.5-130.8 130.8 0 72.3 58.6 130.8 130.8 130.8h451.5l19.9-1.4c50.8-8.4 89.6-52.6 89.6-105.9z"/>
				</g>
				<g id="&lt;Group&gt;">
					<path id="&lt;Compound Path&gt;" class="s72" d="m1494.7 412.3l-78 40.1v-11.6l65.8-32.9v-0.4l-65.8-32.9v-11.6l78 40.2z"/>
					<path id="&lt;Compound Path&gt;" class="s73" d="m1394.5 459.2l-47.1-122h11.5l46.9 122z"/>
					<path id="&lt;Compound Path&gt;" class="s74" d="m1258.8 403l78.1-40v11.6l-66.3 32.9v0.4l66.3 32.9v11.6l-78.1-40z"/>
				</g>
			</g>
			<g id="&lt;Group&gt;" style="opacity: .2">
				<path id="&lt;Path&gt;" class="s75" d="m1600.8 2300.5c0 38-179.1 68.8-400 68.8-220.9 0-400-30.8-400-68.8 0-38.1 179.1-68.9 400-68.9 220.9 0 400 30.8 400 68.9z"/>
				<path id="&lt;Path&gt;" class="s75" d="m1595 2300.5c0 37.5-176.5 67.8-394.2 67.8-217.8 0-394.3-30.3-394.3-67.8 0-37.5 176.5-67.9 394.3-67.9 217.7 0 394.2 30.4 394.2 67.9z"/>
				<path id="&lt;Path&gt;" class="s76" d="m1589.3 2300.5c0 36.9-174 66.9-388.5 66.9-214.6 0-388.5-30-388.5-66.9 0-37 173.9-66.9 388.5-66.9 214.5 0 388.5 29.9 388.5 66.9z"/>
				<path id="&lt;Path&gt;" class="s76" d="m1583.5 2300.5c0 36.4-171.3 65.9-382.7 65.9-211.4 0-382.8-29.5-382.8-65.9 0-36.4 171.4-65.9 382.8-65.9 211.4 0 382.7 29.5 382.7 65.9z"/>
				<path id="&lt;Path&gt;" class="s76" d="m1577.8 2300.5c0 35.8-168.8 64.9-377 64.9-208.3 0-377.1-29.1-377.1-64.9 0-35.9 168.8-64.9 377.1-64.9 208.2 0 377 29 377 64.9z"/>
				<path id="&lt;Path&gt;" class="s77" d="m1572.1 2300.5c0 35.3-166.3 63.9-371.3 63.9-205.1 0-371.3-28.6-371.3-63.9 0-35.3 166.2-64 371.3-64 205 0 371.3 28.7 371.3 64z"/>
				<path id="&lt;Path&gt;" class="s77" d="m1566.3 2300.5c0 34.7-163.6 62.9-365.5 62.9-201.9 0-365.6-28.2-365.6-62.9 0-34.8 163.7-63 365.6-63 201.9 0 365.5 28.2 365.5 63z"/>
				<path id="&lt;Path&gt;" class="s77" d="m1560.6 2300.5c0 34.2-161.1 61.9-359.8 61.9-198.8 0-359.8-27.7-359.8-61.9 0-34.2 161-62 359.8-62 198.7 0 359.8 27.8 359.8 62z"/>
				<path id="&lt;Path&gt;" class="s78" d="m1554.8 2300.5c0 33.6-158.5 60.9-354 60.9-195.6 0-354.1-27.3-354.1-60.9 0-33.7 158.5-61 354.1-61 195.5 0 354 27.3 354 61z"/>
				<path id="&lt;Path&gt;" class="s78" d="m1549.1 2300.5c0 33.1-156 59.9-348.3 59.9-192.4 0-348.4-26.8-348.4-59.9 0-33.2 156-60 348.4-60 192.3 0 348.3 26.8 348.3 60z"/>
				<path id="&lt;Path&gt;" class="s78" d="m1543.4 2300.5c0 32.5-153.4 59-342.6 59-189.2 0-342.6-26.5-342.6-59 0-32.6 153.4-59 342.6-59 189.2 0 342.6 26.4 342.6 59z"/>
				<path id="&lt;Path&gt;" class="s79" d="m1537.6 2300.5c0 32-150.8 58-336.8 58-186.1 0-336.9-26-336.9-58 0-32.1 150.8-58 336.9-58 186 0 336.8 25.9 336.8 58z"/>
				<path id="&lt;Path&gt;" class="s79" d="m1531.9 2300.5c0 31.5-148.3 57-331.1 57-182.9 0-331.2-25.5-331.2-57 0-31.5 148.3-57 331.2-57 182.8 0 331.1 25.5 331.1 57z"/>
				<path id="&lt;Path&gt;" class="s79" d="m1526.1 2300.5c0 30.9-145.6 56-325.3 56-179.7 0-325.4-25.1-325.4-56 0-31 145.7-56.1 325.4-56.1 179.7 0 325.3 25.1 325.3 56.1z"/>
				<path id="&lt;Path&gt;" class="s80" d="m1520.4 2300.5c0 30.4-143.1 55-319.6 55-176.6 0-319.7-24.6-319.7-55 0-30.4 143.1-55.1 319.7-55.1 176.5 0 319.6 24.7 319.6 55.1z"/>
				<path id="&lt;Path&gt;" class="s80" d="m1514.7 2300.5c0 29.8-140.6 54-313.9 54-173.4 0-313.9-24.2-313.9-54 0-29.9 140.5-54.1 313.9-54.1 173.3 0 313.9 24.2 313.9 54.1z"/>
				<path id="&lt;Path&gt;" class="s81" d="m1508.9 2300.5c0 29.3-137.9 53-308.1 53-170.2 0-308.2-23.7-308.2-53 0-29.3 138-53.1 308.2-53.1 170.2 0 308.1 23.8 308.1 53.1z"/>
				<path id="&lt;Path&gt;" class="s81" d="m1503.2 2300.5c0 28.7-135.4 52-302.4 52-167.1 0-302.5-23.3-302.5-52 0-28.8 135.4-52.1 302.5-52.1 167 0 302.4 23.3 302.4 52.1z"/>
				<path id="&lt;Path&gt;" class="s81" d="m1497.4 2300.5c0 28.2-132.8 51-296.6 51-163.9 0-296.7-22.8-296.7-51 0-28.2 132.8-51.1 296.7-51.1 163.8 0 296.6 22.9 296.6 51.1z"/>
				<path id="&lt;Path&gt;" class="s82" d="m1491.7 2300.5c0 27.6-130.3 50.1-290.9 50.1-160.7 0-291-22.5-291-50.1 0-27.7 130.3-50.1 291-50.1 160.6 0 290.9 22.4 290.9 50.1z"/>
				<path id="&lt;Path&gt;" class="s82" d="m1486 2300.5c0 27.1-127.7 49.1-285.2 49.1-157.5 0-285.2-22-285.2-49.1 0-27.2 127.7-49.1 285.2-49.1 157.5 0 285.2 21.9 285.2 49.1z"/>
				<path id="&lt;Path&gt;" class="s82" d="m1480.2 2300.5c0 26.5-125.1 48.1-279.4 48.1-154.4 0-279.5-21.6-279.5-48.1 0-26.6 125.1-48.1 279.5-48.1 154.3 0 279.4 21.5 279.4 48.1z"/>
				<path id="&lt;Path&gt;" class="s83" d="m1474.5 2300.5c0 26-122.6 47.1-273.7 47.1-151.2 0-273.8-21.1-273.8-47.1 0-26.1 122.6-47.2 273.8-47.2 151.1 0 273.7 21.1 273.7 47.2z"/>
				<path id="&lt;Path&gt;" class="s83" d="m1468.8 2300.5c0 25.5-120 46.1-268 46.1-148 0-268-20.6-268-46.1 0-25.5 120-46.2 268-46.2 148 0 268 20.7 268 46.2z"/>
				<path id="&lt;Path&gt;" class="s83" d="m1463 2300.5c0 24.9-117.4 45.1-262.2 45.1-144.9 0-262.3-20.2-262.3-45.1 0-25 117.4-45.2 262.3-45.2 144.8 0 262.2 20.2 262.2 45.2z"/>
				<path id="&lt;Path&gt;" class="s84" d="m1457.3 2300.5c0 24.4-114.9 44.1-256.5 44.1-141.7 0-256.5-19.7-256.5-44.1 0-24.4 114.8-44.2 256.5-44.2 141.6 0 256.5 19.8 256.5 44.2z"/>
				<path id="&lt;Path&gt;" class="s84" d="m1451.5 2300.5c0 23.8-112.2 43.1-250.7 43.1-138.5 0-250.8-19.3-250.8-43.1 0-23.9 112.3-43.2 250.8-43.2 138.5 0 250.7 19.3 250.7 43.2z"/>
				<path id="&lt;Path&gt;" class="s84" d="m1445.8 2300.5c0 23.3-109.7 42.2-245 42.2-135.4 0-245.1-18.9-245.1-42.2 0-23.3 109.7-42.2 245.1-42.2 135.3 0 245 18.9 245 42.2z"/>
				<path id="&lt;Path&gt;" class="s85" d="m1440.1 2300.5c0 22.7-107.2 41.2-239.3 41.2-132.2 0-239.3-18.5-239.3-41.2 0-22.8 107.1-41.2 239.3-41.2 132.1 0 239.3 18.4 239.3 41.2z"/>
				<path id="&lt;Path&gt;" class="s86" d="m1434.3 2300.5c0 22.2-104.5 40.2-233.5 40.2-129 0-233.6-18-233.6-40.2 0-22.2 104.6-40.2 233.6-40.2 129 0 233.5 18 233.5 40.2z"/>
			</g>
			<g id="&lt;Group&gt;" style="opacity: .2">
				<path id="&lt;Path&gt;" class="s75" d="m2400.8 1500.8c0 11.3-80.9 20.5-180.7 20.5-99.8 0-180.7-9.2-180.7-20.5 0-11.4 80.9-20.5 180.7-20.5 99.8 0 180.7 9.1 180.7 20.5z"/>
				<path id="&lt;Path&gt;" class="s75" d="m2398.2 1500.8c0 11.1-79.8 20.2-178.1 20.2-98.3 0-178.1-9.1-178.1-20.2 0-11.2 79.8-20.2 178.1-20.2 98.3 0 178.1 9 178.1 20.2z"/>
				<path id="&lt;Path&gt;" class="s76" d="m2395.6 1500.8c0 11-78.6 19.9-175.5 19.9-96.9 0-175.5-8.9-175.5-19.9 0-11 78.6-19.9 175.5-19.9 96.9 0 175.5 8.9 175.5 19.9z"/>
				<path id="&lt;Path&gt;" class="s76" d="m2393 1500.8c0 10.8-77.4 19.6-172.9 19.6-95.5 0-172.9-8.8-172.9-19.6 0-10.9 77.4-19.7 172.9-19.7 95.5 0 172.9 8.8 172.9 19.7z"/>
				<path id="&lt;Path&gt;" class="s76" d="m2390.4 1500.8c0 10.7-76.3 19.3-170.3 19.3-94 0-170.3-8.6-170.3-19.3 0-10.7 76.3-19.4 170.3-19.4 94 0 170.3 8.7 170.3 19.4z"/>
				<path id="&lt;Path&gt;" class="s77" d="m2387.8 1500.8c0 10.5-75.1 19-167.7 19-92.6 0-167.7-8.5-167.7-19 0-10.5 75.1-19.1 167.7-19.1 92.6 0 167.7 8.6 167.7 19.1z"/>
				<path id="&lt;Path&gt;" class="s77" d="m2385.2 1500.8c0 10.3-73.9 18.7-165.1 18.7-91.2 0-165.1-8.4-165.1-18.7 0-10.4 73.9-18.8 165.1-18.8 91.2 0 165.1 8.4 165.1 18.8z"/>
				<path id="&lt;Path&gt;" class="s77" d="m2382.6 1500.8c0 10.2-72.7 18.4-162.5 18.4-89.8 0-162.5-8.2-162.5-18.4 0-10.2 72.7-18.5 162.5-18.5 89.8 0 162.5 8.3 162.5 18.5z"/>
				<path id="&lt;Path&gt;" class="s78" d="m2380 1500.8c0 10-71.6 18.1-159.9 18.1-88.3 0-159.9-8.1-159.9-18.1 0-10.1 71.6-18.2 159.9-18.2 88.3 0 159.9 8.1 159.9 18.2z"/>
				<path id="&lt;Path&gt;" class="s78" d="m2377.4 1500.8c0 9.8-70.4 17.8-157.3 17.8-86.9 0-157.3-8-157.3-17.8 0-9.9 70.4-17.9 157.3-17.9 86.9 0 157.3 8 157.3 17.9z"/>
				<path id="&lt;Path&gt;" class="s78" d="m2374.8 1500.8c0 9.7-69.2 17.5-154.7 17.5-85.5 0-154.7-7.8-154.7-17.5 0-9.7 69.2-17.6 154.7-17.6 85.5 0 154.7 7.9 154.7 17.6z"/>
				<path id="&lt;Path&gt;" class="s79" d="m2372.2 1500.8c0 9.5-68.1 17.3-152.1 17.3-84 0-152.1-7.8-152.1-17.3 0-9.6 68.1-17.3 152.1-17.3 84 0 152.1 7.7 152.1 17.3z"/>
				<path id="&lt;Path&gt;" class="s79" d="m2369.7 1500.8c0 9.4-67 17-149.6 17-82.6 0-149.5-7.6-149.5-17 0-9.4 66.9-17 149.5-17 82.6 0 149.6 7.6 149.6 17z"/>
				<path id="&lt;Path&gt;" class="s79" d="m2367.1 1500.8c0 9.2-65.8 16.7-147 16.7-81.2 0-147-7.5-147-16.7 0-9.2 65.8-16.7 147-16.7 81.2 0 147 7.5 147 16.7z"/>
				<path id="&lt;Path&gt;" class="s80" d="m2364.5 1500.8c0 9-64.7 16.4-144.4 16.4-79.7 0-144.4-7.4-144.4-16.4 0-9.1 64.7-16.4 144.4-16.4 79.7 0 144.4 7.3 144.4 16.4z"/>
				<path id="&lt;Path&gt;" class="s80" d="m2361.9 1500.8c0 8.9-63.5 16.1-141.8 16.1-78.3 0-141.8-7.2-141.8-16.1 0-8.9 63.5-16.1 141.8-16.1 78.3 0 141.8 7.2 141.8 16.1z"/>
				<path id="&lt;Path&gt;" class="s81" d="m2359.3 1500.8c0 8.7-62.3 15.8-139.2 15.8-76.9 0-139.2-7.1-139.2-15.8 0-8.8 62.3-15.8 139.2-15.8 76.9 0 139.2 7 139.2 15.8z"/>
				<path id="&lt;Path&gt;" class="s81" d="m2356.7 1500.8c0 8.5-61.2 15.5-136.6 15.5-75.4 0-136.6-7-136.6-15.5 0-8.6 61.2-15.5 136.6-15.5 75.4 0 136.6 6.9 136.6 15.5z"/>
				<path id="&lt;Path&gt;" class="s81" d="m2354.1 1500.8c0 8.4-60 15.2-134 15.2-74 0-134-6.8-134-15.2 0-8.4 60-15.2 134-15.2 74 0 134 6.8 134 15.2z"/>
				<path id="&lt;Path&gt;" class="s82" d="m2351.5 1500.8c0 8.2-58.8 14.9-131.4 14.9-72.6 0-131.4-6.7-131.4-14.9 0-8.3 58.8-14.9 131.4-14.9 72.6 0 131.4 6.6 131.4 14.9z"/>
				<path id="&lt;Path&gt;" class="s82" d="m2348.9 1500.8c0 8.1-57.7 14.6-128.8 14.6-71.1 0-128.8-6.5-128.8-14.6 0-8.1 57.7-14.7 128.8-14.7 71.1 0 128.8 6.6 128.8 14.7z"/>
				<path id="&lt;Path&gt;" class="s82" d="m2346.3 1500.8c0 7.9-56.5 14.3-126.2 14.3-69.7 0-126.2-6.4-126.2-14.3 0-7.9 56.5-14.4 126.2-14.4 69.7 0 126.2 6.5 126.2 14.4z"/>
				<path id="&lt;Path&gt;" class="s83" d="m2343.7 1500.8c0 7.7-55.3 14-123.6 14-68.3 0-123.6-6.3-123.6-14 0-7.8 55.3-14.1 123.6-14.1 68.3 0 123.6 6.3 123.6 14.1z"/>
				<path id="&lt;Path&gt;" class="s83" d="m2341.1 1500.8c0 7.6-54.2 13.7-121 13.7-66.8 0-121-6.1-121-13.7 0-7.6 54.2-13.8 121-13.8 66.8 0 121 6.2 121 13.8z"/>
				<path id="&lt;Path&gt;" class="s83" d="m2338.5 1500.8c0 7.4-53 13.4-118.4 13.4-65.4 0-118.4-6-118.4-13.4 0-7.5 53-13.5 118.4-13.5 65.4 0 118.4 6 118.4 13.5z"/>
				<path id="&lt;Path&gt;" class="s84" d="m2336 1500.8c0 7.2-51.9 13.1-115.9 13.1-64 0-115.9-5.9-115.9-13.1 0-7.3 51.9-13.2 115.9-13.2 64 0 115.9 5.9 115.9 13.2z"/>
				<path id="&lt;Path&gt;" class="s84" d="m2333.4 1500.8c0 7.1-50.7 12.8-113.3 12.8-62.6 0-113.3-5.7-113.3-12.8 0-7.1 50.7-12.9 113.3-12.9 62.6 0 113.3 5.8 113.3 12.9z"/>
				<path id="&lt;Path&gt;" class="s84" d="m2330.8 1500.8c0 6.9-49.6 12.5-110.7 12.5-61.1 0-110.7-5.6-110.7-12.5 0-7 49.6-12.6 110.7-12.6 61.1 0 110.7 5.6 110.7 12.6z"/>
				<path id="&lt;Path&gt;" class="s85" d="m2328.2 1500.8c0 6.8-48.4 12.2-108.1 12.2-59.7 0-108.1-5.4-108.1-12.2 0-6.8 48.4-12.3 108.1-12.3 59.7 0 108.1 5.5 108.1 12.3z"/>
				<path id="&lt;Path&gt;" class="s86" d="m2325.6 1500.8c0 6.6-47.2 12-105.5 12-58.3 0-105.5-5.4-105.5-12 0-6.6 47.2-12 105.5-12 58.3 0 105.5 5.4 105.5 12z"/>
			</g>
			<g id="&lt;Group&gt;" style="opacity: .2">
				<path id="&lt;Path&gt;" class="s75" d="m2733.3 2206.7c0 38.1-552.2 68.9-1233.3 68.9-681.1 0-1233.3-30.8-1233.3-68.9 0-38 552.2-68.8 1233.3-68.8 681.1 0 1233.3 30.8 1233.3 68.8z"/>
				<path id="&lt;Path&gt;" class="s75" d="m2715.6 2206.7c0 37.5-544.3 67.9-1215.6 67.9-671.3 0-1215.6-30.4-1215.6-67.9 0-37.5 544.3-67.8 1215.6-67.8 671.3 0 1215.6 30.3 1215.6 67.8z"/>
				<path id="&lt;Path&gt;" class="s76" d="m2697.9 2206.7c0 37-536.3 66.9-1197.9 66.9-661.6 0-1197.9-29.9-1197.9-66.9 0-36.9 536.3-66.9 1197.9-66.9 661.6 0 1197.9 30 1197.9 66.9z"/>
				<path id="&lt;Path&gt;" class="s76" d="m2680.2 2206.7c0 36.4-528.4 65.9-1180.2 65.9-651.8 0-1180.2-29.5-1180.2-65.9 0-36.4 528.4-65.9 1180.2-65.9 651.8 0 1180.2 29.5 1180.2 65.9z"/>
				<path id="&lt;Path&gt;" class="s76" d="m2662.5 2206.7c0 35.9-520.5 65-1162.5 65-642 0-1162.5-29.1-1162.5-65 0-35.8 520.5-64.9 1162.5-64.9 642 0 1162.5 29.1 1162.5 64.9z"/>
				<path id="&lt;Path&gt;" class="s77" d="m2644.8 2206.7c0 35.3-512.6 64-1144.8 64-632.2 0-1144.8-28.7-1144.8-64 0-35.3 512.6-63.9 1144.8-63.9 632.2 0 1144.8 28.6 1144.8 63.9z"/>
				<path id="&lt;Path&gt;" class="s77" d="m2627.1 2206.7c0 34.8-504.6 63-1127.1 63-622.5 0-1127.1-28.2-1127.1-63 0-34.7 504.6-62.9 1127.1-62.9 622.5 0 1127.1 28.2 1127.1 62.9z"/>
				<path id="&lt;Path&gt;" class="s77" d="m2609.4 2206.7c0 34.3-496.7 62-1109.4 62-612.7 0-1109.4-27.7-1109.4-62 0-34.2 496.7-61.9 1109.4-61.9 612.7 0 1109.4 27.7 1109.4 61.9z"/>
				<path id="&lt;Path&gt;" class="s78" d="m2591.7 2206.7c0 33.7-488.8 61-1091.7 61-602.9 0-1091.7-27.3-1091.7-61 0-33.6 488.8-60.9 1091.7-60.9 602.9 0 1091.7 27.3 1091.7 60.9z"/>
				<path id="&lt;Path&gt;" class="s78" d="m2574 2206.7c0 33.2-480.8 60-1074 60-593.2 0-1074-26.8-1074-60 0-33.1 480.8-59.9 1074-59.9 593.2 0 1074 26.8 1074 59.9z"/>
				<path id="&lt;Path&gt;" class="s78" d="m2556.3 2206.7c0 32.6-472.9 59-1056.3 59-583.4 0-1056.3-26.4-1056.3-59 0-32.5 472.9-58.9 1056.3-58.9 583.4 0 1056.3 26.4 1056.3 58.9z"/>
				<path id="&lt;Path&gt;" class="s79" d="m2538.6 2206.7c0 32.1-465 58-1038.6 58-573.6 0-1038.6-25.9-1038.6-58 0-32 465-58 1038.6-58 573.6 0 1038.6 26 1038.6 58z"/>
				<path id="&lt;Path&gt;" class="s79" d="m2520.9 2206.7c0 31.5-457.1 57-1020.9 57-563.8 0-1020.9-25.5-1020.9-57 0-31.4 457.1-57 1020.9-57 563.8 0 1020.9 25.6 1020.9 57z"/>
				<path id="&lt;Path&gt;" class="s79" d="m2503.2 2206.7c0 31-449.1 56.1-1003.2 56.1-554.1 0-1003.2-25.1-1003.2-56.1 0-30.9 449.1-56 1003.2-56 554.1 0 1003.2 25.1 1003.2 56z"/>
				<path id="&lt;Path&gt;" class="s80" d="m2485.5 2206.7c0 30.4-441.2 55.1-985.5 55.1-544.3 0-985.5-24.7-985.5-55.1 0-30.4 441.2-55 985.5-55 544.3 0 985.5 24.6 985.5 55z"/>
				<path id="&lt;Path&gt;" class="s80" d="m2467.8 2206.7c0 29.9-433.3 54.1-967.8 54.1-534.5 0-967.8-24.2-967.8-54.1 0-29.8 433.3-54 967.8-54 534.5 0 967.8 24.2 967.8 54z"/>
				<path id="&lt;Path&gt;" class="s81" d="m2450.1 2206.7c0 29.3-425.4 53.1-950.1 53.1-524.7 0-950.1-23.8-950.1-53.1 0-29.3 425.4-53 950.1-53 524.7 0 950.1 23.7 950.1 53z"/>
				<path id="&lt;Path&gt;" class="s81" d="m2432.4 2206.7c0 28.8-417.4 52.1-932.4 52.1-515 0-932.4-23.3-932.4-52.1 0-28.7 417.4-52 932.4-52 515 0 932.4 23.3 932.4 52z"/>
				<path id="&lt;Path&gt;" class="s81" d="m2414.7 2206.7c0 28.2-409.5 51.1-914.7 51.1-505.2 0-914.7-22.9-914.7-51.1 0-28.2 409.5-51 914.7-51 505.2 0 914.7 22.8 914.7 51z"/>
				<path id="&lt;Path&gt;" class="s82" d="m2397.1 2206.7c0 27.7-401.7 50.1-897.1 50.1-495.4 0-897.1-22.4-897.1-50.1 0-27.6 401.7-50.1 897.1-50.1 495.4 0 897.1 22.5 897.1 50.1z"/>
				<path id="&lt;Path&gt;" class="s82" d="m2379.4 2206.7c0 27.2-393.7 49.1-879.4 49.1-485.7 0-879.4-21.9-879.4-49.1 0-27.1 393.7-49.1 879.4-49.1 485.7 0 879.4 22 879.4 49.1z"/>
				<path id="&lt;Path&gt;" class="s82" d="m2361.7 2206.7c0 26.6-385.8 48.2-861.7 48.2-475.9 0-861.7-21.6-861.7-48.2 0-26.5 385.8-48.1 861.7-48.1 475.9 0 861.7 21.6 861.7 48.1z"/>
				<path id="&lt;Path&gt;" class="s83" d="m2344 2206.7c0 26.1-377.9 47.2-844 47.2-466.1 0-844-21.1-844-47.2 0-26 377.9-47.1 844-47.1 466.1 0 844 21.1 844 47.1z"/>
				<path id="&lt;Path&gt;" class="s83" d="m2326.3 2206.7c0 25.5-370 46.2-826.3 46.2-456.3 0-826.3-20.7-826.3-46.2 0-25.4 370-46.1 826.3-46.1 456.3 0 826.3 20.7 826.3 46.1z"/>
				<path id="&lt;Path&gt;" class="s83" d="m2308.6 2206.7c0 25-362 45.2-808.6 45.2-446.6 0-808.6-20.2-808.6-45.2 0-24.9 362-45.1 808.6-45.1 446.6 0 808.6 20.2 808.6 45.1z"/>
				<path id="&lt;Path&gt;" class="s84" d="m2290.9 2206.7c0 24.4-354.1 44.2-790.9 44.2-436.8 0-790.9-19.8-790.9-44.2 0-24.4 354.1-44.1 790.9-44.1 436.8 0 790.9 19.7 790.9 44.1z"/>
				<path id="&lt;Path&gt;" class="s84" d="m2273.2 2206.7c0 23.9-346.2 43.2-773.2 43.2-427 0-773.2-19.3-773.2-43.2 0-23.8 346.2-43.1 773.2-43.1 427 0 773.2 19.3 773.2 43.1z"/>
				<path id="&lt;Path&gt;" class="s84" d="m2255.5 2206.7c0 23.3-338.3 42.2-755.5 42.2-417.2 0-755.5-18.9-755.5-42.2 0-23.3 338.3-42.2 755.5-42.2 417.2 0 755.5 18.9 755.5 42.2z"/>
				<path id="&lt;Path&gt;" class="s85" d="m2237.8 2206.7c0 22.8-330.3 41.2-737.8 41.2-407.5 0-737.8-18.4-737.8-41.2 0-22.7 330.3-41.2 737.8-41.2 407.5 0 737.8 18.5 737.8 41.2z"/>
				<path id="&lt;Path&gt;" class="s86" d="m2220.1 2206.7c0 22.2-322.4 40.2-720.1 40.2-397.7 0-720.1-18-720.1-40.2 0-22.2 322.4-40.2 720.1-40.2 397.7 0 720.1 18 720.1 40.2z"/>
			</g>
			<g id="&lt;Group&gt;">
				<path id="&lt;Compound Path&gt;" fill-rule="evenodd" class="s87" d="m2007 857.3c-1.4-7.4-2-15.2-2-23.1 0-7.9 0.6-15.7 2-23.1h31.9c2.4-10.5 6.6-20.5 12.3-29.5l-22.6-22.4c8.8-12.8 20-24 32.8-32.8l22.5 22.6c9-5.7 18.8-9.8 29.4-12.2v-31.9c7.4-1.4 15.1-2.1 23.1-2.1 7.9 0 15.7 0.7 23.1 2.1v31.9c10.5 2.4 20.3 6.5 29.3 12.2l22.6-22.6c12.8 8.8 24 20 32.8 32.8l-22.6 22.4c5.7 9 9.8 19 12.2 29.5h31.9c1.4 7.4 2.1 15.2 2.1 23.1 0 7.9-0.7 15.7-2.1 23.1h-31.9c-2.4 10.5-6.5 20.4-12.2 29.3l22.6 22.6c-8.8 12.8-19.9 23.8-32.6 32.8l-22.6-22.6c-9 5.7-19 9.8-29.5 12.3v31.9c-7.4 1.3-15.2 2-23.1 2-8 0-15.7-0.7-23.1-2v-31.9c-10.6-2.5-20.6-6.6-29.5-12.3l-22.6 22.6c-12.8-9-23.8-20-32.6-32.8l22.6-22.6c-5.7-8.9-9.9-18.8-12.3-29.3zm129.4 34.5c31.8 0 57.6-25.8 57.6-57.6 0-31.8-25.8-57.6-57.6-57.6-31.8 0-57.6 25.8-57.6 57.6 0 31.8 25.8 57.6 57.6 57.6z"/>
				<path id="&lt;Compound Path&gt;" fill-rule="evenodd" class="s88" d="m1825.2 843.8c-1.8-4.7-3.1-9.7-4-14.8-0.9-5.2-1.3-10.3-1.3-15.3l20.8-3.6c0.4-7.1 1.9-14.1 4.6-20.6l-17.2-12c4.3-9.3 10.3-17.9 17.6-25.1l17.3 12.2c5.2-4.7 11.1-8.5 17.7-11.3l-3.7-20.8c4.7-1.7 9.7-3 14.8-3.9 5.2-0.9 10.3-1.4 15.3-1.3l3.6 20.8c7.2 0.3 14 1.9 20.5 4.6l12.1-17.3c9.4 4.3 17.9 10.3 25.1 17.7l-12.2 17.1c4.7 5.2 8.6 11.2 11.3 17.8l20.8-3.6c1.7 4.7 3.1 9.6 4 14.8 0.9 5.2 1.3 10.3 1.2 15.3l-20.7 3.6c-0.4 7.1-2 14-4.7 20.5l17.3 12.1c-4.3 9.3-10.2 17.7-17.5 25l-17.3-12.1c-5.2 4.7-11.2 8.5-17.8 11.3l3.6 20.8c-4.6 1.7-9.6 3-14.8 3.9-5.1 0.9-10.3 1.4-15.3 1.3l-3.6-20.8c-7.1-0.4-14.1-1.9-20.5-4.6l-12.2 17.3c-9.3-4.4-17.7-10.4-24.9-17.7l12.1-17.2c-4.7-5.2-8.5-11.2-11.3-17.7zm88.1 7.8c20.7-3.6 34.6-23.3 31-44.1-3.6-20.7-23.3-34.5-44-30.9-20.7 3.6-34.6 23.3-31 44 3.6 20.7 23.3 34.6 44 31z"/>
			</g>
			<path id="&lt;Path&gt;" class="s69" d="m2548.6 1004.4v201.5c0 33.5-27.2 60.7-60.7 60.7h-97"/>
			<path id="&lt;Path&gt;" class="s69" d="m1334.6 580.2v159.4c0 21.1-17.1 38.2-38.2 38.2h-289.9c-23.4 0-42.3 18.9-42.3 42.2v208.4"/>
		</g>
	</g>
</svg>