<?xml version="1.0" encoding="UTF-8"?>
<svg xmlns="http://www.w3.org/2000/svg" xmlns:xlink="http://www.w3.org/1999/xlink" viewBox="0 0 144 144" width="144px" height="144px">
<g id="surface628833">
<path style=" stroke:none;fill-rule:nonzero;fill:rgb(100%,100%,100%);fill-opacity:1;" d="M 72 12 C 38.914062 12 12 38.914062 12 72 C 12 105.085938 38.914062 132 72 132 C 105.085938 132 132 105.085938 132 72 C 132 38.914062 105.085938 12 72 12 Z M 72 21 C 100.121094 21 123 43.878906 123 72 C 123 89.554688 114.082031 105.058594 100.542969 114.238281 L 59.226562 52.980469 C 58.125 51.339844 56.0625 50.625 54.183594 51.191406 C 52.292969 51.773438 51 53.523438 51 55.5 L 51 94.5 C 51 96.984375 53.015625 99 55.5 99 C 57.984375 99 60 96.984375 60 94.5 L 60 70.21875 L 92.632812 118.597656 C 86.3125 121.40625 79.34375 123 72 123 C 43.878906 123 21 100.121094 21 72 C 21 43.878906 43.878906 21 72 21 Z M 88.5 45 C 86.015625 45 84 47.015625 84 49.5 L 84 74.957031 L 93 87.867188 L 93 49.5 C 93 47.015625 90.984375 45 88.5 45 Z M 88.5 45 "/>
</g>
</svg>
