<?xml version="1.0" encoding="UTF-8"?>
<svg xmlns="http://www.w3.org/2000/svg" xmlns:xlink="http://www.w3.org/1999/xlink" viewBox="0 0 144 144" width="144px" height="144px">
<g id="surface479081">
<path style=" stroke:none;fill-rule:nonzero;fill:rgb(22.352941%,75.686276%,84.313726%);fill-opacity:1;" d="M 82.078125 72 C 82.078125 77.566406 77.566406 82.078125 72 82.078125 C 66.433594 82.078125 61.921875 77.566406 61.921875 72 C 61.921875 66.433594 66.433594 61.921875 72 61.921875 C 77.566406 61.921875 82.078125 66.433594 82.078125 72 Z M 82.078125 72 "/>
<path style=" stroke:none;fill-rule:nonzero;fill:rgb(22.352941%,75.686276%,84.313726%);fill-opacity:1;" d="M 72 83.519531 C 65.648438 83.519531 60.480469 78.351562 60.480469 72 C 60.480469 65.648438 65.648438 60.480469 72 60.480469 C 78.351562 60.480469 83.519531 65.648438 83.519531 72 C 83.519531 78.351562 78.351562 83.519531 72 83.519531 Z M 72 63.359375 C 67.234375 63.359375 63.359375 67.234375 63.359375 72 C 63.359375 76.765625 67.234375 80.640625 72 80.640625 C 76.765625 80.640625 80.640625 76.765625 80.640625 72 C 80.640625 67.234375 76.765625 63.359375 72 63.359375 Z M 72 63.359375 "/>
<path style=" stroke:none;fill-rule:nonzero;fill:rgb(22.352941%,75.686276%,84.313726%);fill-opacity:1;" d="M 127.441406 72 C 127.441406 64.257812 118.117188 57.558594 103.652344 53.570312 C 107.371094 39.03125 106.226562 27.601562 99.582031 23.722656 C 96.960938 22.191406 93.78125 21.910156 90.132812 22.886719 C 84.636719 24.359375 78.335938 28.660156 72 34.980469 C 65.664062 28.660156 59.363281 24.359375 53.867188 22.886719 C 50.21875 21.910156 47.039062 22.191406 44.417969 23.722656 C 37.773438 27.601562 36.628906 39.03125 40.347656 53.570312 C 25.882812 57.558594 16.558594 64.257812 16.558594 72 C 16.558594 79.742188 25.882812 86.441406 40.347656 90.429688 C 36.628906 104.96875 37.773438 116.402344 44.417969 120.28125 C 46.019531 121.214844 47.828125 121.6875 49.824219 121.683594 C 51.097656 121.683594 52.445312 121.496094 53.867188 121.113281 C 59.363281 119.640625 65.664062 115.339844 72 109.019531 C 78.335938 115.339844 84.636719 119.640625 90.132812 121.113281 C 91.554688 121.496094 92.902344 121.683594 94.175781 121.683594 C 96.171875 121.683594 97.980469 121.214844 99.582031 120.28125 C 106.226562 116.402344 107.371094 104.96875 103.652344 90.429688 C 118.117188 86.441406 127.441406 79.742188 127.441406 72 Z M 91.25 27.058594 C 92.296875 26.78125 93.261719 26.640625 94.15625 26.640625 C 95.394531 26.640625 96.480469 26.910156 97.40625 27.449219 C 101.855469 30.050781 102.765625 39.574219 99.449219 52.523438 C 94.878906 51.496094 89.894531 50.722656 84.597656 50.242188 C 81.488281 45.761719 78.253906 41.679688 74.996094 38.105469 C 80.78125 32.304688 86.457031 28.34375 91.25 27.058594 Z M 87.488281 81.070312 C 85.789062 84.046875 84.003906 86.894531 82.167969 89.621094 C 78.914062 89.867188 75.523438 90 72 90 C 68.476562 90 65.085938 89.867188 61.832031 89.621094 C 60 86.894531 58.210938 84.046875 56.515625 81.070312 C 54.757812 77.996094 53.183594 74.964844 51.773438 72 C 53.183594 69.039062 54.757812 66.007812 56.515625 62.929688 C 58.214844 59.953125 60 57.105469 61.832031 54.378906 C 65.085938 54.132812 68.476562 54 72 54 C 75.523438 54 78.914062 54.132812 82.167969 54.378906 C 84 57.105469 85.789062 59.957031 87.488281 62.929688 C 89.242188 66.007812 90.816406 69.035156 92.230469 72 C 90.816406 74.964844 89.242188 77.996094 87.488281 81.070312 Z M 94.527344 77.105469 C 96.027344 80.648438 97.265625 84.058594 98.265625 87.304688 C 94.992188 88.03125 91.453125 88.640625 87.675781 89.09375 C 88.890625 87.183594 90.085938 85.230469 91.238281 83.210938 C 92.40625 81.167969 93.496094 79.128906 94.527344 77.105469 Z M 72 102.753906 C 69.644531 100.148438 67.292969 97.265625 64.996094 94.144531 C 67.289062 94.253906 69.621094 94.320312 72 94.320312 C 74.378906 94.320312 76.710938 94.253906 79.003906 94.144531 C 76.707031 97.261719 74.355469 100.148438 72 102.753906 Z M 56.320312 89.09375 C 52.546875 88.640625 49.007812 88.03125 45.730469 87.304688 C 46.734375 84.058594 47.972656 80.648438 49.472656 77.105469 C 50.503906 79.128906 51.59375 81.167969 52.761719 83.210938 C 53.914062 85.230469 55.109375 87.183594 56.320312 89.09375 Z M 49.472656 66.898438 C 47.972656 63.351562 46.734375 59.941406 45.734375 56.695312 C 49.007812 55.964844 52.546875 55.355469 56.324219 54.90625 C 55.109375 56.816406 53.917969 58.769531 52.761719 60.789062 C 51.59375 62.835938 50.503906 64.871094 49.472656 66.898438 Z M 72 41.246094 C 74.355469 43.851562 76.707031 46.738281 79.003906 49.855469 C 76.710938 49.746094 74.378906 49.679688 72 49.679688 C 69.621094 49.679688 67.289062 49.746094 64.996094 49.855469 C 67.292969 46.738281 69.644531 43.851562 72 41.246094 Z M 91.238281 60.792969 C 90.085938 58.769531 88.890625 56.816406 87.675781 54.90625 C 91.453125 55.359375 94.992188 55.96875 98.269531 56.695312 C 97.265625 59.941406 96.027344 63.351562 94.527344 66.898438 C 93.496094 64.871094 92.40625 62.835938 91.238281 60.792969 Z M 46.59375 27.449219 C 47.519531 26.910156 48.605469 26.640625 49.84375 26.640625 C 50.734375 26.640625 51.707031 26.78125 52.75 27.058594 C 57.542969 28.34375 63.21875 32.304688 69.003906 38.105469 C 65.746094 41.679688 62.511719 45.761719 59.402344 50.242188 C 54.105469 50.71875 49.117188 51.492188 44.550781 52.519531 C 41.234375 39.574219 42.144531 30.050781 46.59375 27.449219 Z M 20.878906 72 C 20.878906 66.820312 28.65625 61.285156 41.523438 57.742188 C 42.917969 62.292969 44.75 67.082031 47.003906 72 C 44.75 76.917969 42.917969 81.707031 41.523438 86.257812 C 28.65625 82.714844 20.878906 77.179688 20.878906 72 Z M 52.75 116.941406 C 50.253906 117.605469 48.183594 117.476562 46.59375 116.550781 C 42.144531 113.949219 41.234375 104.425781 44.550781 91.480469 C 49.117188 92.507812 54.105469 93.28125 59.402344 93.757812 C 62.511719 98.242188 65.746094 102.320312 69.003906 105.898438 C 63.21875 111.695312 57.542969 115.65625 52.75 116.941406 Z M 97.40625 116.550781 C 95.816406 117.476562 93.75 117.609375 91.25 116.941406 C 86.457031 115.65625 80.78125 111.695312 74.996094 105.894531 C 78.253906 102.320312 81.488281 98.238281 84.597656 93.757812 C 89.894531 93.277344 94.878906 92.503906 99.449219 91.476562 C 102.765625 104.425781 101.855469 113.949219 97.40625 116.550781 Z M 102.476562 86.257812 C 101.082031 81.707031 99.25 76.917969 96.996094 72 C 99.25 67.082031 101.082031 62.289062 102.476562 57.742188 C 115.34375 61.285156 123.121094 66.820312 123.121094 72 C 123.121094 77.179688 115.34375 82.714844 102.476562 86.257812 Z M 102.476562 86.257812 "/>
<path style=" stroke:none;fill-rule:nonzero;fill:rgb(22.352941%,75.686276%,84.313726%);fill-opacity:1;" d="M 49.816406 122.402344 C 47.699219 122.402344 45.761719 121.898438 44.054688 120.902344 C 37.386719 117.003906 35.726562 106.105469 39.480469 90.933594 C 24.445312 86.65625 15.839844 79.777344 15.839844 72 C 15.839844 64.222656 24.445312 57.34375 39.476562 53.066406 C 35.726562 37.894531 37.386719 26.996094 44.054688 23.097656 C 46.847656 21.464844 50.207031 21.160156 54.054688 22.191406 C 59.40625 23.625 65.601562 27.691406 72 33.96875 C 78.398438 27.691406 84.59375 23.625 89.945312 22.191406 C 93.789062 21.164062 97.152344 21.46875 99.945312 23.097656 C 106.613281 26.996094 108.273438 37.894531 104.523438 53.066406 C 119.554688 57.34375 128.160156 64.222656 128.160156 72 C 128.160156 79.777344 119.554688 86.65625 104.523438 90.933594 C 108.273438 106.105469 106.617188 117.003906 99.945312 120.902344 C 97.171875 122.519531 93.773438 122.832031 89.949219 121.808594 C 84.59375 120.375 78.398438 116.308594 72 110.03125 C 65.601562 116.308594 59.40625 120.375 54.054688 121.808594 C 52.582031 122.203125 51.15625 122.402344 49.824219 122.402344 C 49.824219 122.402344 49.820312 122.402344 49.816406 122.402344 Z M 49.828125 23.039062 C 47.957031 23.039062 46.265625 23.472656 44.78125 24.34375 C 38.695312 27.894531 37.300781 38.753906 41.042969 53.390625 C 41.140625 53.773438 40.914062 54.160156 40.535156 54.265625 C 25.976562 58.28125 17.28125 64.910156 17.28125 72 C 17.28125 79.089844 25.976562 85.71875 40.539062 89.734375 C 40.917969 89.839844 41.140625 90.226562 41.042969 90.609375 C 37.300781 105.246094 38.695312 116.105469 44.78125 119.65625 C 46.261719 120.523438 47.957031 120.960938 49.816406 120.960938 C 49.820312 120.960938 49.824219 120.960938 49.824219 120.960938 C 51.03125 120.960938 52.328125 120.777344 53.679688 120.417969 C 58.933594 119.011719 65.09375 114.894531 71.492188 108.507812 C 71.773438 108.230469 72.226562 108.230469 72.507812 108.507812 C 78.90625 114.890625 85.066406 119.007812 90.320312 120.417969 C 93.765625 121.335938 96.777344 121.082031 99.21875 119.65625 C 105.304688 116.105469 106.699219 105.246094 102.957031 90.609375 C 102.859375 90.226562 103.082031 89.839844 103.460938 89.734375 C 118.023438 85.71875 126.71875 79.089844 126.71875 72 C 126.71875 64.910156 118.023438 58.28125 103.460938 54.265625 C 103.082031 54.160156 102.859375 53.773438 102.957031 53.390625 C 106.699219 38.753906 105.300781 27.894531 99.21875 24.34375 C 96.773438 22.914062 93.777344 22.660156 90.316406 23.582031 C 85.066406 24.988281 78.90625 29.105469 72.507812 35.492188 C 72.226562 35.769531 71.769531 35.769531 71.492188 35.492188 C 65.089844 29.105469 58.929688 24.988281 53.679688 23.582031 C 52.324219 23.21875 51.039062 23.039062 49.828125 23.039062 Z M 94.15625 118.078125 C 93.199219 118.078125 92.171875 117.933594 91.066406 117.636719 C 86.269531 116.351562 80.535156 112.46875 74.484375 106.40625 C 74.214844 106.132812 74.203125 105.695312 74.460938 105.410156 C 77.722656 101.832031 80.933594 97.773438 84.003906 93.347656 C 84.125 93.171875 84.320312 93.058594 84.53125 93.039062 C 89.734375 92.570312 94.699219 91.808594 99.289062 90.773438 C 99.667969 90.691406 100.050781 90.921875 100.144531 91.300781 C 103.511719 104.4375 102.597656 114.351562 97.765625 117.171875 C 96.730469 117.777344 95.523438 118.078125 94.15625 118.078125 Z M 75.992188 105.871094 C 81.679688 111.476562 87.011719 115.058594 91.4375 116.246094 C 93.738281 116.859375 95.625 116.753906 97.042969 115.929688 C 101.152344 113.527344 101.875 104.304688 98.921875 92.332031 C 94.5625 93.28125 89.882812 93.992188 84.996094 94.445312 C 82.09375 98.609375 79.066406 102.449219 75.992188 105.871094 Z M 49.84375 118.078125 C 48.476562 118.078125 47.269531 117.777344 46.234375 117.171875 C 41.402344 114.351562 40.488281 104.4375 43.855469 91.300781 C 43.949219 90.921875 44.332031 90.695312 44.710938 90.773438 C 49.300781 91.808594 54.265625 92.570312 59.46875 93.039062 C 59.679688 93.058594 59.875 93.171875 59.996094 93.347656 C 63.066406 97.773438 66.277344 101.832031 69.539062 105.410156 C 69.796875 105.695312 69.785156 106.132812 69.515625 106.40625 C 63.464844 112.46875 57.730469 116.351562 52.9375 117.636719 C 51.828125 117.929688 50.796875 118.078125 49.84375 118.078125 Z M 45.078125 92.332031 C 42.125 104.300781 42.847656 113.527344 46.957031 115.929688 C 48.371094 116.753906 50.257812 116.859375 52.5625 116.246094 C 56.988281 115.058594 62.320312 111.476562 68.007812 105.871094 C 64.933594 102.449219 61.90625 98.609375 59.003906 94.445312 C 54.117188 93.992188 49.4375 93.28125 45.078125 92.332031 Z M 72 103.472656 C 71.796875 103.472656 71.601562 103.386719 71.464844 103.234375 C 69.070312 100.585938 66.699219 97.671875 64.414062 94.570312 C 64.25 94.347656 64.230469 94.046875 64.359375 93.800781 C 64.492188 93.558594 64.738281 93.40625 65.03125 93.421875 C 69.792969 93.65625 74.207031 93.65625 78.96875 93.421875 C 79.257812 93.40625 79.507812 93.558594 79.640625 93.800781 C 79.769531 94.046875 79.75 94.34375 79.585938 94.570312 C 77.300781 97.667969 74.929688 100.585938 72.535156 103.234375 C 72.398438 103.386719 72.203125 103.472656 72 103.472656 Z M 66.480469 94.929688 C 68.28125 97.3125 70.132812 99.574219 72 101.675781 C 73.867188 99.574219 75.71875 97.316406 77.519531 94.929688 C 73.757812 95.074219 70.242188 95.074219 66.480469 94.929688 Z M 72 90.71875 C 68.589844 90.71875 65.148438 90.59375 61.777344 90.339844 C 61.558594 90.324219 61.355469 90.207031 61.234375 90.023438 C 59.308594 87.160156 57.507812 84.265625 55.886719 81.425781 C 54.1875 78.449219 52.585938 75.382812 51.121094 72.308594 C 51.027344 72.113281 51.027344 71.886719 51.121094 71.691406 C 52.585938 68.617188 54.1875 65.550781 55.886719 62.574219 C 57.507812 59.734375 59.304688 56.84375 61.234375 53.972656 C 61.355469 53.792969 61.558594 53.675781 61.777344 53.65625 C 68.523438 53.152344 75.476562 53.152344 82.222656 53.65625 C 82.441406 53.671875 82.640625 53.789062 82.765625 53.972656 C 84.695312 56.84375 86.492188 59.734375 88.113281 62.574219 C 89.8125 65.550781 91.414062 68.617188 92.878906 71.691406 C 92.972656 71.886719 92.972656 72.113281 92.878906 72.308594 C 91.414062 75.382812 89.8125 78.449219 88.113281 81.425781 C 86.492188 84.265625 84.691406 87.160156 82.765625 90.023438 C 82.644531 90.207031 82.441406 90.324219 82.222656 90.339844 C 78.851562 90.59375 75.410156 90.71875 72 90.71875 Z M 62.234375 88.929688 C 68.683594 89.394531 75.316406 89.394531 81.765625 88.929688 C 83.597656 86.191406 85.3125 83.425781 86.859375 80.710938 C 88.484375 77.863281 90.023438 74.9375 91.429688 72 C 90.023438 69.0625 88.484375 66.132812 86.859375 63.289062 C 85.3125 60.578125 83.597656 57.8125 81.761719 55.070312 C 75.3125 54.605469 68.683594 54.605469 62.234375 55.070312 C 60.398438 57.8125 58.683594 60.578125 57.136719 63.289062 C 55.511719 66.136719 53.972656 69.0625 52.566406 72 C 53.972656 74.9375 55.511719 77.867188 57.136719 80.710938 C 58.6875 83.429688 60.402344 86.191406 62.234375 88.929688 Z M 87.679688 89.8125 C 87.433594 89.8125 87.203125 89.6875 87.070312 89.480469 C 86.921875 89.242188 86.921875 88.941406 87.070312 88.707031 C 88.40625 86.605469 89.566406 84.6875 90.613281 82.855469 C 91.714844 80.929688 92.8125 78.882812 93.886719 76.78125 C 94.011719 76.53125 94.28125 76.382812 94.554688 76.386719 C 94.832031 76.398438 95.082031 76.566406 95.191406 76.828125 C 96.652344 80.28125 97.917969 83.734375 98.957031 87.09375 C 99.015625 87.285156 98.992188 87.492188 98.890625 87.664062 C 98.789062 87.839844 98.621094 87.964844 98.425781 88.007812 C 95.039062 88.761719 91.453125 89.371094 87.765625 89.808594 C 87.734375 89.8125 87.707031 89.8125 87.679688 89.8125 Z M 94.457031 78.8125 C 93.601562 80.453125 92.734375 82.046875 91.863281 83.566406 C 91.023438 85.039062 90.113281 86.5625 89.101562 88.1875 C 91.9375 87.8125 94.703125 87.335938 97.347656 86.765625 C 96.515625 84.15625 95.546875 81.488281 94.457031 78.8125 Z M 56.320312 89.8125 C 56.292969 89.8125 56.265625 89.8125 56.234375 89.808594 C 52.546875 89.367188 48.960938 88.761719 45.574219 88.003906 C 45.378906 87.960938 45.210938 87.839844 45.109375 87.664062 C 45.007812 87.488281 44.984375 87.28125 45.042969 87.089844 C 46.082031 83.734375 47.347656 80.28125 48.808594 76.824219 C 48.917969 76.566406 49.167969 76.394531 49.445312 76.386719 C 49.707031 76.359375 49.988281 76.527344 50.113281 76.777344 C 51.1875 78.882812 52.285156 80.925781 53.386719 82.851562 C 54.433594 84.6875 55.59375 86.601562 56.929688 88.707031 C 57.078125 88.941406 57.078125 89.242188 56.929688 89.476562 C 56.796875 89.6875 56.566406 89.8125 56.320312 89.8125 Z M 46.65625 86.765625 C 49.300781 87.335938 52.066406 87.8125 54.902344 88.1875 C 53.886719 86.5625 52.976562 85.039062 52.136719 83.566406 C 51.265625 82.046875 50.398438 80.449219 49.542969 78.8125 C 48.453125 81.488281 47.484375 84.15625 46.65625 86.765625 Z M 102.476562 86.976562 C 102.167969 86.976562 101.882812 86.777344 101.789062 86.46875 C 100.386719 81.890625 98.550781 77.125 96.34375 72.300781 C 96.253906 72.109375 96.253906 71.890625 96.34375 71.699219 C 98.550781 66.878906 100.386719 62.109375 101.789062 57.53125 C 101.90625 57.15625 102.300781 56.949219 102.671875 57.046875 C 115.726562 60.648438 123.839844 66.375 123.839844 72 C 123.839844 77.625 115.726562 83.351562 102.667969 86.953125 C 102.605469 86.96875 102.539062 86.976562 102.476562 86.976562 Z M 97.789062 72 C 99.855469 76.542969 101.59375 81.039062 102.957031 85.375 C 114.792969 82 122.398438 76.785156 122.398438 72 C 122.398438 67.214844 114.792969 62 102.957031 58.625 C 101.59375 62.960938 99.855469 67.457031 97.789062 72 Z M 41.523438 86.976562 C 41.460938 86.976562 41.394531 86.96875 41.332031 86.953125 C 28.273438 83.351562 20.160156 77.625 20.160156 72 C 20.160156 66.375 28.273438 60.648438 41.332031 57.046875 C 41.703125 56.949219 42.09375 57.15625 42.210938 57.53125 C 43.617188 62.109375 45.449219 66.878906 47.660156 71.699219 C 47.746094 71.890625 47.746094 72.109375 47.660156 72.300781 C 45.449219 77.125 43.617188 81.890625 42.210938 86.46875 C 42.117188 86.777344 41.832031 86.976562 41.523438 86.976562 Z M 41.042969 58.625 C 29.207031 62 21.601562 67.214844 21.601562 72 C 21.601562 76.785156 29.207031 82 41.042969 85.375 C 42.40625 81.039062 44.144531 76.542969 46.210938 72 C 44.144531 67.457031 42.40625 62.960938 41.042969 58.625 Z M 94.527344 67.617188 C 94.257812 67.617188 94.011719 67.46875 93.886719 67.226562 C 92.796875 65.082031 91.726562 63.09375 90.613281 61.148438 C 89.570312 59.316406 88.410156 57.402344 87.070312 55.292969 C 86.921875 55.058594 86.921875 54.757812 87.070312 54.523438 C 87.21875 54.289062 87.484375 54.160156 87.765625 54.191406 C 91.457031 54.632812 95.042969 55.238281 98.425781 55.996094 C 98.621094 56.039062 98.792969 56.160156 98.894531 56.335938 C 98.996094 56.511719 99.015625 56.71875 98.957031 56.910156 C 97.921875 60.273438 96.652344 63.726562 95.195312 67.175781 C 95.085938 67.433594 94.835938 67.605469 94.554688 67.617188 C 94.542969 67.617188 94.535156 67.617188 94.527344 67.617188 Z M 91.863281 60.433594 C 92.742188 61.976562 93.597656 63.542969 94.457031 65.1875 C 95.546875 62.515625 96.511719 59.847656 97.34375 57.234375 C 94.699219 56.664062 91.933594 56.1875 89.09375 55.8125 C 90.113281 57.441406 91.023438 58.964844 91.863281 60.433594 Z M 49.472656 67.617188 C 49.460938 67.617188 49.453125 67.617188 49.445312 67.617188 C 49.164062 67.609375 48.917969 67.4375 48.808594 67.179688 C 47.347656 63.730469 46.082031 60.273438 45.042969 56.910156 C 44.984375 56.71875 45.007812 56.511719 45.109375 56.335938 C 45.207031 56.164062 45.378906 56.039062 45.574219 55.996094 C 48.957031 55.238281 52.546875 54.632812 56.234375 54.191406 C 56.515625 54.164062 56.785156 54.289062 56.933594 54.523438 C 57.082031 54.761719 57.078125 55.058594 56.929688 55.292969 C 55.589844 57.402344 54.433594 59.316406 53.386719 61.148438 C 52.277344 63.09375 51.203125 65.082031 50.113281 67.226562 C 49.988281 67.46875 49.742188 67.617188 49.472656 67.617188 Z M 46.65625 57.234375 C 47.484375 59.847656 48.453125 62.515625 49.542969 65.1875 C 50.402344 63.542969 51.253906 61.976562 52.136719 60.433594 C 52.976562 58.964844 53.886719 57.441406 54.902344 55.8125 C 52.066406 56.1875 49.300781 56.664062 46.65625 57.234375 Z M 99.449219 53.242188 C 99.398438 53.242188 99.34375 53.238281 99.292969 53.226562 C 94.703125 52.191406 89.734375 51.429688 84.53125 50.960938 C 84.320312 50.941406 84.125 50.828125 84.003906 50.652344 C 80.933594 46.222656 77.722656 42.167969 74.460938 38.589844 C 74.203125 38.308594 74.214844 37.867188 74.484375 37.597656 C 80.535156 31.535156 86.269531 27.648438 91.066406 26.363281 C 93.757812 25.644531 96.015625 25.808594 97.765625 26.828125 C 102.597656 29.652344 103.511719 39.566406 100.148438 52.703125 C 100.0625 53.023438 99.773438 53.242188 99.449219 53.242188 Z M 84.996094 49.554688 C 89.882812 50.007812 94.5625 50.71875 98.921875 51.667969 C 101.875 39.699219 101.152344 30.472656 97.039062 28.070312 C 95.628906 27.25 93.742188 27.140625 91.4375 27.753906 C 87.011719 28.941406 81.679688 32.523438 75.988281 38.132812 C 79.066406 41.550781 82.09375 45.390625 84.996094 49.554688 Z M 44.550781 53.242188 C 44.226562 53.242188 43.9375 53.023438 43.851562 52.699219 C 40.488281 39.5625 41.398438 29.652344 46.230469 26.828125 C 46.230469 26.828125 46.230469 26.828125 46.234375 26.828125 C 47.984375 25.808594 50.246094 25.644531 52.933594 26.363281 C 57.730469 27.652344 63.464844 31.535156 69.511719 37.597656 C 69.785156 37.867188 69.792969 38.308594 69.535156 38.589844 C 66.277344 42.167969 63.066406 46.226562 59.992188 50.652344 C 59.871094 50.828125 59.679688 50.941406 59.464844 50.960938 C 54.265625 51.429688 49.296875 52.191406 44.707031 53.226562 C 44.65625 53.238281 44.601562 53.242188 44.550781 53.242188 Z M 46.957031 28.070312 C 42.847656 30.472656 42.125 39.699219 45.078125 51.667969 C 49.4375 50.71875 54.117188 50.007812 59.003906 49.554688 C 61.90625 45.390625 64.933594 41.550781 68.007812 38.128906 C 62.320312 32.523438 56.988281 28.941406 52.558594 27.753906 C 50.265625 27.140625 48.375 27.246094 46.957031 28.070312 Z M 79.003906 50.574219 C 78.992188 50.574219 78.980469 50.574219 78.96875 50.574219 C 74.207031 50.34375 69.792969 50.34375 65.03125 50.574219 C 64.734375 50.582031 64.492188 50.441406 64.363281 50.195312 C 64.230469 49.953125 64.25 49.652344 64.417969 49.429688 C 66.703125 46.328125 69.074219 43.410156 71.46875 40.761719 C 71.742188 40.460938 72.261719 40.460938 72.535156 40.761719 C 74.925781 43.410156 77.300781 46.324219 79.585938 49.429688 C 79.75 49.652344 79.773438 49.953125 79.640625 50.195312 C 79.511719 50.429688 79.269531 50.574219 79.003906 50.574219 Z M 72 48.960938 C 73.789062 48.960938 75.640625 48.996094 77.519531 49.070312 C 75.714844 46.683594 73.863281 44.421875 72 42.324219 C 70.136719 44.425781 68.285156 46.683594 66.480469 49.070312 C 68.359375 48.996094 70.210938 48.960938 72 48.960938 Z M 72 48.960938 "/>
</g>
</svg>
